<svg width="64" height="64" viewBox="0 0 64 64" fill="none" xmlns="http://www.w3.org/2000/svg">
<g clip-path="url(#clip0_674_7830)">
<path opacity="0.3" d="M27.1319 64C12.1475 59.9849 3.40296 44.0306 7.60054 28.365C11.7981 12.6995 27.3482 3.25486 42.3327 7.26994C31.0081 49.5338 36.9364 27.4091 27.1319 64Z" fill="white"/>
<path fill-rule="evenodd" clip-rule="evenodd" d="M30.5048 15.999H43.5098C48.5948 15.999 51.9998 19.569 51.9998 24.879V37.1355C51.9998 42.4305 48.5948 45.999 43.5098 45.999H30.5048C25.4198 45.999 21.9998 42.4305 21.9998 37.1355V24.879C21.9998 19.569 25.4198 15.999 30.5048 15.999ZM36.9848 26.5905C36.2798 26.5905 35.6948 26.004 35.6948 25.2855C35.6948 24.5505 36.2798 23.9655 37.0148 23.9655C37.7348 23.9655 38.3198 24.5505 38.3198 25.2855C38.3198 26.004 37.7348 26.5905 36.9848 26.5905ZM38.3048 36.6705C38.3048 37.3905 37.7198 37.9755 36.9848 37.9755C36.2648 37.9755 35.6798 37.3905 35.6798 36.6705V30.0405C35.6798 29.319 36.2648 28.7205 36.9848 28.7205C37.7198 28.7205 38.3048 29.319 38.3048 30.0405V36.6705Z" fill="#07003B"/>
<circle cx="53.5039" cy="34.4731" r="7.6606" fill="white"/>
</g>
<defs>
<clipPath id="clip0_674_7830">
<rect width="64" height="64" fill="white"/>
</clipPath>
</defs>
</svg>
