<svg width="42" height="42" viewBox="0 0 42 42" fill="none" xmlns="http://www.w3.org/2000/svg">
<path d="M29.2597 30.788C26.718 33.387 23.1724 35 19.25 35C11.518 35 5.25 28.732 5.25 21C5.25 13.268 11.518 7 19.25 7V7C26.982 7 33.25 13.268 33.25 21" stroke="white" stroke-width="3" stroke-linecap="round"/>
<path d="M32.0575 25.7046C32.0092 25.6594 31.8025 25.4887 31.6325 25.3298C30.5633 24.3977 28.8133 21.9661 28.2792 20.6934C28.1933 20.5001 28.0117 20.0115 28 19.7504C28 19.5002 28.06 19.2618 28.1817 19.0342C28.3517 18.7505 28.6192 18.5229 28.935 18.3982C29.1542 18.318 29.81 18.1933 29.8217 18.1933C30.5392 18.0686 31.705 18 32.9933 18C34.2208 18 35.3392 18.0686 36.0675 18.1707C36.0792 18.1824 36.8942 18.3071 37.1733 18.4434C37.6833 18.6936 38 19.1823 38 19.7052V19.7504C37.9875 20.091 37.6708 20.8072 37.6592 20.8072C37.1242 22.0113 35.46 24.3868 34.3542 25.3415C34.3542 25.3415 34.07 25.6103 33.8925 25.7272C33.6375 25.9096 33.3217 26 33.0058 26C32.6533 26 32.325 25.8979 32.0575 25.7046Z" fill="white"/>
</svg>
