<svg width="64" height="64" viewBox="0 0 64 64" fill="none" xmlns="http://www.w3.org/2000/svg">
<path d="M20.3325 62.6958C9.36315 51.7264 9.76736 33.5373 21.2354 22.0693C32.7034 10.6013 50.8924 10.1971 61.8618 21.1665C30.9225 52.1058 47.1189 35.9094 20.3325 62.6958Z" fill="#FFCCD4"/>
<path fill-rule="evenodd" clip-rule="evenodd" d="M43.7486 28.3383L44.799 29.3883C45.6306 30.205 46.0828 31.3133 46.0828 32.48C46.0974 33.6466 45.6452 34.7564 44.8282 35.5862C44.8185 35.5969 44.8088 35.6063 44.799 35.6157C44.7942 35.6204 44.7893 35.6251 44.7844 35.63L43.7486 36.6654C43.3402 37.0737 43.1067 37.6279 43.1067 38.2127V39.7133C43.1067 42.1341 41.1373 44.1044 38.7156 44.1044H37.2129C36.6294 44.1044 36.075 44.3362 35.6666 44.7446L34.6162 45.7946C33.7554 46.6564 32.6321 47.0779 31.5088 47.0779C30.3855 47.0779 29.2621 46.6564 28.4014 45.8106L27.3364 44.7446C26.928 44.3362 26.3736 44.1044 25.7901 44.1044H24.2874C21.8657 44.1044 19.8963 42.1341 19.8963 39.7133V38.2127C19.8963 37.6279 19.6628 37.0737 19.2544 36.6508L18.204 35.6154C16.4971 33.9106 16.4825 31.1237 18.1894 29.4044L19.2544 28.3383C19.6628 27.93 19.8963 27.3758 19.8963 26.7779V25.2904C19.8963 22.8696 21.8657 20.9023 24.2874 20.9023H25.7901C26.3736 20.9023 26.928 20.6675 27.3364 20.2591L28.3868 19.2091C30.0937 17.4898 32.8801 17.4898 34.6016 19.196L35.6666 20.2591C36.075 20.6675 36.6294 20.9023 37.2129 20.9023H38.7156C41.1373 20.9023 43.1067 22.8696 43.1067 25.2904V26.7939C43.1067 27.3758 43.3402 27.93 43.7486 28.3383ZM27.7449 37.5258C28.0951 37.5258 28.416 37.3946 28.6494 37.1466L36.148 29.6523C36.644 29.1564 36.644 28.3383 36.148 27.8425C35.652 27.3481 34.8496 27.3481 34.3536 27.8425L26.855 35.3383C26.359 35.8341 26.359 36.6508 26.855 37.1466C27.0884 37.3946 27.4094 37.5258 27.7449 37.5258ZM33.9743 36.2425C33.9743 36.9571 34.5432 37.5258 35.2581 37.5258C35.9583 37.5258 36.5273 36.9571 36.5273 36.2425C36.5273 35.5439 35.9583 34.9737 35.2581 34.9737C34.5432 34.9737 33.9743 35.5439 33.9743 36.2425ZM27.7595 27.4779C28.4598 27.4779 29.0287 28.0466 29.0287 28.7466C29.0287 29.4627 28.4598 30.03 27.7595 30.03C27.0593 30.03 26.4757 29.4627 26.4757 28.7466C26.4757 28.0466 27.0593 27.4779 27.7595 27.4779Z" fill="#07003B"/>
<circle cx="39.6606" cy="40.6606" r="7.6606" fill="#FF5670"/>
</svg>
