<svg width="64" height="64" viewBox="0 0 64 64" fill="none" xmlns="http://www.w3.org/2000/svg">
<path opacity="0.3" d="M20.3325 62.6958C9.36315 51.7264 9.76736 33.5373 21.2354 22.0693C32.7034 10.6013 50.8924 10.1971 61.8618 21.1665C30.9225 52.1058 47.1189 35.9094 20.3325 62.6958Z" fill="#FDDB2C"/>
<path fill-rule="evenodd" clip-rule="evenodd" d="M20.6207 17.917H25.5498C27.6061 17.917 29.254 19.5941 29.254 21.6518V26.6232C29.254 28.6941 27.6061 30.3566 25.5498 30.3566H20.6207C18.579 30.3566 16.9165 28.6941 16.9165 26.6232V21.6518C16.9165 19.5941 18.579 17.917 20.6207 17.917ZM20.6207 34.6436H25.5498C27.6061 34.6436 29.254 36.3076 29.254 38.3784V43.3499C29.254 45.4061 27.6061 47.0832 25.5498 47.0832H20.6207C18.579 47.0832 16.9165 45.4061 16.9165 43.3499V38.3784C16.9165 36.3076 18.579 34.6436 20.6207 34.6436ZM42.3791 17.917H37.45C35.3937 17.917 33.7458 19.5941 33.7458 21.6518V26.6232C33.7458 28.6941 35.3937 30.3566 37.45 30.3566H42.3791C44.4208 30.3566 46.0833 28.6941 46.0833 26.6232V21.6518C46.0833 19.5941 44.4208 17.917 42.3791 17.917ZM37.45 34.6436H42.3791C44.4208 34.6436 46.0833 36.3076 46.0833 38.3784V43.3499C46.0833 45.4061 44.4208 47.0832 42.3791 47.0832H37.45C35.3937 47.0832 33.7458 45.4061 33.7458 43.3499V38.3784C33.7458 36.3076 35.3937 34.6436 37.45 34.6436Z" fill="#07003B"/>
<circle cx="39.6606" cy="40.6606" r="7.6606" fill="#FDDB2C"/>
</svg>
