<svg width="42" height="42" viewBox="0 0 42 42" fill="none" xmlns="http://www.w3.org/2000/svg">
<path fill-rule="evenodd" clip-rule="evenodd" d="M3.5 21.0101C3.5 11.3509 11.3547 3.5 21 3.5C30.6453 3.5 38.5 11.3509 38.5 21.0101C38.5 30.6491 30.6453 38.5 21 38.5C11.3547 38.5 3.5 30.6491 3.5 21.0101ZM27.4189 22.7812C27.6047 22.5955 27.8412 22.3085 27.8919 22.241C28.1622 21.8864 28.2973 21.4474 28.2973 21.0101C28.2973 20.5188 28.1453 20.063 27.8581 19.6915C27.8346 19.668 27.7885 19.6178 27.7284 19.5524C27.6161 19.4301 27.4548 19.2546 27.3007 19.1006C25.9155 17.6148 22.3007 15.1836 20.4088 14.4407C20.1216 14.3242 19.3953 14.0692 19.0068 14.0523C18.6351 14.0523 18.2804 14.1368 17.9426 14.3056C17.5203 14.542 17.1824 14.9134 16.9966 15.3524C16.8784 15.6563 16.6926 16.568 16.6926 16.5849C16.5068 17.581 16.4054 19.2019 16.4054 20.9916C16.4054 22.6985 16.5068 24.2501 16.6588 25.2631C16.663 25.2673 16.6775 25.3398 16.7001 25.4523C16.7687 25.7945 16.9117 26.5074 17.0642 26.7996C17.4358 27.5087 18.1622 27.9477 18.9392 27.9477H19.0068C19.5135 27.9308 20.5777 27.4918 20.5777 27.4749C22.3682 26.732 25.8986 24.419 27.3176 22.8825L27.4189 22.7812Z" fill="white"/>
</svg>
