<?xml version="1.0" standalone="no"?>
<!DOCTYPE svg PUBLIC "-//W3C//DTD SVG 20010904//EN"
 "http://www.w3.org/TR/2001/REC-SVG-20010904/DTD/svg10.dtd">
<svg version="1.0" xmlns="http://www.w3.org/2000/svg"
 width="700.000000pt" height="700.000000pt" viewBox="0 0 700.000000 700.000000"
 preserveAspectRatio="xMidYMid meet">
<metadata>
Created by potrace 1.14, written by Peter Selinger 2001-2017
</metadata>
<g transform="translate(0.000000,700.000000) scale(0.100000,-0.100000)"
fill="#000000" stroke="none">
<path d="M3278 6995 c-1 -1 -41 -6 -88 -9 -87 -7 -104 -9 -225 -27 -77 -12
-98 -15 -135 -24 -14 -3 -38 -8 -55 -11 -133 -24 -393 -103 -560 -171 -309
-126 -592 -290 -845 -490 -232 -183 -466 -423 -639 -656 -44 -61 -171 -247
-171 -252 0 -2 -19 -34 -42 -71 -108 -178 -250 -502 -317 -719 -30 -101 -66
-246 -96 -385 -15 -75 -18 -94 -31 -205 -3 -33 -8 -63 -10 -66 -6 -11 -18
-265 -18 -399 0 -131 11 -348 19 -373 2 -7 6 -41 10 -76 3 -36 7 -67 9 -70 2
-3 7 -28 10 -56 10 -73 27 -149 71 -325 60 -235 186 -548 314 -777 256 -457
541 -781 1001 -1136 47 -36 281 -183 375 -235 320 -177 697 -306 1103 -377
122 -21 348 -37 527 -38 122 -1 325 9 370 17 11 2 47 7 80 10 324 37 727 157
1035 308 69 34 127 62 130 63 4 1 124 71 185 108 316 194 560 406 854 742 10
11 54 68 99 127 353 471 583 1027 667 1616 35 244 41 707 11 882 -2 14 -7 48
-10 75 -10 75 -16 113 -31 190 -8 39 -16 81 -18 95 -16 88 -88 330 -137 460
-191 502 -437 883 -816 1264 -85 85 -195 184 -261 234 -26 21 -54 43 -61 50
-44 40 -256 182 -397 264 -95 56 -351 176 -470 221 -114 44 -322 111 -375 121
-14 3 -52 12 -85 20 -33 8 -100 22 -150 30 -49 9 -100 18 -112 20 -12 3 -50 7
-85 11 -35 3 -76 8 -93 11 -33 5 -531 14 -537 9z"/>
</g>
</svg>
