<svg width="65" height="64" viewBox="0 0 65 64" fill="none" xmlns="http://www.w3.org/2000/svg">
<g clip-path="url(#clip0_674_8880)">
<path d="M27.6322 64C12.6477 59.9849 3.90321 44.0306 8.10078 28.365C12.2984 12.6995 27.8485 3.25486 42.8329 7.26994C31.5084 49.5338 37.4367 27.4091 27.6322 64Z" fill="#EDE2FF"/>
<circle cx="42.5" cy="32.5" r="16.5" fill="#07003B"/>
<path d="M46.9205 30.7633L41.4507 36.3657C41.2549 36.5662 41.0016 36.6606 40.7367 36.6606C40.4834 36.6606 40.2301 36.5662 40.0343 36.3657L37.2936 33.5704C36.9021 33.1576 36.9021 32.5089 37.2936 32.1079C37.6852 31.7069 38.33 31.7069 38.7215 32.1079L40.7367 34.1719L45.4926 29.3008C45.8841 28.8997 46.529 28.8997 46.9205 29.3008C47.312 29.7136 47.312 30.3623 46.9205 30.7633Z" fill="#BA90FF"/>
</g>
<defs>
<clipPath id="clip0_674_8880">
<rect width="64" height="64" fill="white" transform="translate(0.5)"/>
</clipPath>
</defs>
</svg>
