<svg width="252" height="71" viewBox="0 0 252 71" fill="none" xmlns="http://www.w3.org/2000/svg">
<path d="M80.6602 23.8569C80.6602 23.084 80.8088 22.3112 81.0763 21.568C81.3439 20.8248 81.7303 20.1411 82.2654 19.5466C82.8005 18.9223 83.4545 18.4467 84.1976 18.09C85.0002 17.7035 85.892 17.5252 86.7838 17.5252C87.8243 17.4955 88.8647 17.763 89.7565 18.2981C90.5591 18.7737 91.1834 19.4574 91.5995 20.2898L90.024 21.3302C89.8754 20.9735 89.6376 20.6465 89.37 20.3789C89.1322 20.1411 88.8647 19.9033 88.5377 19.7547C88.2404 19.606 87.9432 19.4871 87.6162 19.4277C87.3189 19.3682 86.9919 19.3385 86.6947 19.3385C86.1001 19.3385 85.4759 19.4574 84.9408 19.7249C84.4652 19.9925 84.0193 20.3492 83.6923 20.7951C83.3653 21.241 83.0977 21.7464 82.9194 22.2814C82.741 22.8165 82.6518 23.3516 82.6518 23.9164C82.6518 24.5109 82.741 25.1055 82.9491 25.6703C83.1275 26.2053 83.4247 26.7107 83.8112 27.1566C84.1679 27.5728 84.6138 27.9295 85.1191 28.1673C85.6245 28.4348 86.1893 28.5537 86.7541 28.5537C87.0811 28.5537 87.4081 28.524 87.7054 28.4348C88.0323 28.3456 88.3593 28.2267 88.6566 28.0484C88.9539 27.87 89.2511 27.6619 89.4889 27.3944C89.7565 27.1269 89.9646 26.7999 90.1132 26.4432L91.7779 27.3944C91.5698 27.87 91.3023 28.2862 90.9158 28.6429C90.5591 28.9996 90.1132 29.3266 89.6673 29.5644C89.1917 29.8023 88.7161 30.0103 88.181 30.1292C87.6756 30.2481 87.1703 30.3373 86.6649 30.3373C85.8029 30.3373 84.9705 30.159 84.2273 29.7725C83.5139 29.4158 82.8599 28.9105 82.3248 28.2862C81.7898 27.6619 81.3736 26.9782 81.0763 26.2053C80.8088 25.4919 80.6602 24.6596 80.6602 23.8569Z" fill="#212121"/>
<path d="M94.0078 30.2778V17.6143H99.5072C100.042 17.6143 100.607 17.7332 101.083 17.971C101.558 18.2088 101.975 18.5061 102.331 18.9222C102.688 19.3087 102.955 19.7546 103.134 20.2302C103.342 20.7058 103.431 21.2112 103.431 21.7462C103.431 22.1624 103.372 22.5786 103.253 22.965C103.134 23.3515 102.955 23.7082 102.747 24.0649C102.539 24.3919 102.272 24.6892 101.975 24.927C101.677 25.1648 101.321 25.3729 100.964 25.4918L103.936 30.3075H101.677L98.9424 25.908H96.0292V30.3075L94.0078 30.2778ZM95.9995 24.0946H99.5072C99.7748 24.0946 100.042 24.0352 100.28 23.9163C100.518 23.7974 100.726 23.619 100.875 23.4109C101.053 23.1731 101.172 22.9353 101.261 22.638C101.35 22.3408 101.41 22.0435 101.41 21.7165C101.41 21.4193 101.35 21.0923 101.231 20.795C101.112 20.5275 100.964 20.2599 100.785 20.0518C100.607 19.8438 100.399 19.6654 100.131 19.5465C99.8937 19.4276 99.6261 19.3681 99.3883 19.3681H95.9995V24.0946Z" fill="#212121"/>
<path d="M114.844 28.4942V30.248H106.164V17.6143H114.696V19.3681H108.156V22.965H113.804V24.6297H108.156V28.4942H114.844Z" fill="#212121"/>
<path d="M121 17.6143H122.754L127.748 30.2778H125.637L124.3 26.8295H119.424L118.116 30.2778H116.006L121 17.6143ZM123.913 25.3432L121.892 19.9032L119.781 25.3432H123.913Z" fill="#212121"/>
<path d="M138.954 19.3681H134.733V30.2778H132.741V19.3681H128.49V17.6143H138.954V19.3681Z" fill="#212121"/>
<path d="M146.268 30.3667C145.406 30.3667 144.573 30.1883 143.8 29.8316C143.087 29.4749 142.433 28.9993 141.868 28.375C141.333 27.7805 140.917 27.0671 140.62 26.3239C140.322 25.551 140.174 24.7484 140.174 23.9458C140.174 23.1134 140.322 22.2811 140.649 21.5082C140.947 20.765 141.393 20.0516 141.928 19.4571C142.463 18.8625 143.117 18.3869 143.83 18.0302C144.603 17.6735 145.435 17.4951 146.268 17.4951C147.13 17.4951 147.962 17.6735 148.735 18.0599C149.448 18.4166 150.102 18.922 150.638 19.5462C151.173 20.1408 151.589 20.8542 151.856 21.5974C152.451 23.1432 152.421 24.8376 151.827 26.3536C151.529 27.0968 151.113 27.8102 150.548 28.4048C150.013 28.9993 149.33 29.4749 148.616 29.8019C147.932 30.1586 147.1 30.3667 146.268 30.3667ZM142.255 23.9458C142.255 24.5403 142.344 25.1051 142.552 25.6699C142.73 26.205 142.998 26.7103 143.355 27.1562C143.711 27.5724 144.127 27.9291 144.633 28.1669C145.138 28.4345 145.733 28.5534 146.297 28.5534C146.892 28.5534 147.457 28.4048 147.992 28.1372C148.468 27.8697 148.913 27.513 149.24 27.0671C149.597 26.6212 149.865 26.1158 150.013 25.5807C150.192 25.0457 150.281 24.4809 150.281 23.916C150.281 23.3215 150.192 22.727 149.984 22.1919C149.805 21.6568 149.538 21.1515 149.181 20.7353C148.824 20.3191 148.408 19.9624 147.903 19.7246C146.833 19.2193 145.584 19.2193 144.544 19.7543C144.068 20.0219 143.622 20.3786 143.265 20.7948C142.909 21.2407 142.641 21.746 142.463 22.2514C142.314 22.7864 142.225 23.3512 142.255 23.9458Z" fill="#212121"/>
<path d="M154.77 30.2778V17.6143H160.269C160.804 17.6143 161.369 17.7332 161.844 17.971C162.32 18.2088 162.736 18.5061 163.093 18.9222C163.45 19.3087 163.717 19.7546 163.896 20.2302C164.104 20.7058 164.193 21.2112 164.193 21.7462C164.193 22.1624 164.133 22.5786 164.015 22.965C163.896 23.3515 163.717 23.7082 163.509 24.0649C163.301 24.3919 163.034 24.6892 162.736 24.927C162.439 25.1648 162.082 25.3729 161.726 25.4918L164.698 30.3075H162.439L159.704 25.908H156.791V30.3075L154.77 30.2778ZM156.791 24.0946H160.299C160.566 24.0946 160.834 24.0352 161.072 23.9163C161.309 23.7974 161.517 23.619 161.666 23.4109C161.844 23.1731 161.963 22.9353 162.053 22.638C162.142 22.3408 162.201 22.0435 162.201 21.7165C162.201 21.4193 162.142 21.0923 162.023 20.795C161.904 20.5275 161.755 20.2599 161.577 20.0518C161.399 19.8438 161.19 19.6654 160.923 19.5465C160.685 19.4276 160.418 19.3681 160.18 19.3681H156.791V24.0946Z" fill="#212121"/>
<path d="M174.418 20.5873C174.27 20.4387 174.091 20.29 173.913 20.1711C173.675 20.0225 173.408 19.8739 173.11 19.755C172.783 19.6063 172.456 19.5172 172.1 19.428C171.743 19.3388 171.356 19.3091 170.97 19.3091C170.138 19.3091 169.513 19.4577 169.097 19.7847C168.711 20.082 168.473 20.5576 168.503 21.0629C168.503 21.3305 168.562 21.598 168.681 21.8358C168.83 22.0439 169.038 22.2223 169.276 22.3412C169.573 22.5195 169.93 22.6384 170.257 22.7276C170.643 22.8465 171.119 22.9654 171.624 23.0843C172.218 23.233 172.783 23.3816 173.348 23.5897C173.824 23.7681 174.27 23.9761 174.656 24.2734C175.013 24.5409 175.28 24.8977 175.488 25.2841C175.696 25.73 175.786 26.2354 175.786 26.7407C175.815 27.3055 175.667 27.8703 175.429 28.4054C175.191 28.8513 174.864 29.2377 174.418 29.535C173.972 29.8323 173.467 30.0701 172.932 30.189C172.337 30.3376 171.743 30.3971 171.119 30.3971C170.167 30.3971 169.216 30.2484 168.324 29.9512C167.433 29.6836 166.63 29.2377 165.887 28.6729L166.808 26.9488C167.016 27.1569 167.224 27.3055 167.492 27.4541C167.819 27.6622 168.146 27.8406 168.503 27.9892C168.919 28.1676 169.335 28.2865 169.751 28.4054C170.227 28.5243 170.673 28.5838 171.148 28.5838C171.773 28.6135 172.427 28.4648 172.962 28.1676C173.378 27.9 173.616 27.4541 173.616 26.9488C173.616 26.6515 173.556 26.384 173.378 26.1462C173.199 25.9084 172.962 25.73 172.694 25.5814C172.337 25.403 171.981 25.2544 171.594 25.1355C171.178 25.0166 170.673 24.8679 170.138 24.7193C169.573 24.5707 169.038 24.3923 168.503 24.1842C168.086 24.0356 167.67 23.7978 167.343 23.5005C167.046 23.2627 166.808 22.9357 166.63 22.579C166.452 22.1628 166.362 21.7466 166.392 21.3007C166.392 20.7359 166.511 20.1711 166.749 19.6361C166.987 19.1604 167.314 18.7443 167.73 18.4173C168.176 18.0903 168.651 17.8227 169.186 17.6741C169.781 17.4958 170.405 17.4066 171 17.4363C171.802 17.4363 172.605 17.5552 173.378 17.8525C174.062 18.0903 174.686 18.447 175.28 18.8632L174.418 20.5873Z" fill="#212121"/>
<path d="M194.022 28.9256C193.071 29.966 191.733 30.5903 190.336 30.5903C189.533 30.5903 188.731 30.4119 187.988 30.0552C187.274 29.6985 186.62 29.2228 186.085 28.6283C185.55 28.0041 185.104 27.3203 184.837 26.5474C184.539 25.7746 184.391 24.9422 184.391 24.0802C184.391 23.2478 184.539 22.4155 184.837 21.6426C185.134 20.8994 185.55 20.2157 186.085 19.6212C186.62 19.0564 187.274 18.5807 187.988 18.2537C189.741 17.5106 191.763 17.5998 193.457 18.4916C194.26 18.9672 194.884 19.6806 195.3 20.513L193.754 21.6128C193.457 20.9589 192.952 20.4238 192.328 20.0671C191.733 19.7103 191.02 19.532 190.336 19.5617C189.771 19.5617 189.206 19.6806 188.701 19.9482C188.225 20.186 187.809 20.5427 187.452 20.9589C187.096 21.4048 186.828 21.9101 186.65 22.4452C186.471 23.01 186.382 23.6045 186.382 24.1991C186.382 24.8233 186.471 25.4178 186.68 26.0124C186.888 26.5475 187.155 27.0528 187.542 27.469C187.898 27.8851 188.344 28.2121 188.85 28.45C189.355 28.6878 189.92 28.8067 190.485 28.8067C191.139 28.8067 191.763 28.658 192.328 28.3608C192.982 28.0041 193.546 27.5284 194.022 26.9636V25.5962H191.376V24.1099H195.716V30.5011H194.052L194.022 28.9256Z" fill="#212121"/>
<path d="M198.334 30.5014V17.8379H203.833C204.368 17.8379 204.933 17.9568 205.409 18.1946C205.885 18.4324 206.301 18.7297 206.657 19.1459C207.014 19.5323 207.282 19.9782 207.46 20.4538C207.668 20.9295 207.757 21.4348 207.757 21.9699C207.757 22.3861 207.698 22.8022 207.579 23.1887C207.46 23.5751 207.282 23.9318 207.074 24.2886C206.866 24.6155 206.598 24.9128 206.301 25.1506C206.003 25.3884 205.647 25.5668 205.29 25.6857L208.263 30.5014H206.003L203.269 26.1019H200.355V30.5014H198.334ZM200.326 24.3183H203.833C204.101 24.3183 204.368 24.2588 204.606 24.1399C204.844 24.021 205.052 23.8427 205.201 23.6346C205.379 23.3968 205.498 23.1589 205.587 22.8617C205.676 22.5644 205.736 22.2671 205.736 21.9402C205.736 21.6429 205.676 21.3159 205.558 21.0186C205.439 20.7511 205.29 20.4836 205.112 20.2755C204.933 20.0674 204.725 19.889 204.458 19.7701C204.22 19.6512 203.952 19.5918 203.714 19.5918H200.326V24.3183Z" fill="#212121"/>
<path d="M215.754 30.5903C214.892 30.5903 214.06 30.412 213.287 30.0553C212.573 29.6985 211.919 29.2229 211.355 28.5987C210.819 28.0041 210.403 27.2907 210.106 26.5475C209.809 25.7746 209.66 24.972 209.66 24.1694C209.66 23.3371 209.809 22.5047 210.136 21.7318C210.433 20.9887 210.879 20.2752 211.414 19.6807C211.949 19.0862 212.603 18.6105 213.346 18.2538C214.119 17.8971 214.951 17.7188 215.784 17.7188C216.646 17.7188 217.478 17.8971 218.251 18.2836C218.965 18.6403 219.619 19.1456 220.154 19.7699C220.689 20.3644 221.105 21.0778 221.372 21.821C221.967 23.3668 221.937 25.0612 221.343 26.5773C221.045 27.3501 220.629 28.0339 220.064 28.6284C219.529 29.2229 218.846 29.6985 218.132 30.0255C217.389 30.412 216.586 30.5903 215.754 30.5903ZM211.711 24.1694C211.711 24.7639 211.8 25.3287 212.009 25.8935C212.187 26.4286 212.454 26.934 212.811 27.3799C213.168 27.796 213.584 28.1528 214.089 28.3906C214.595 28.6581 215.189 28.777 215.754 28.777C216.349 28.777 216.943 28.6581 217.449 28.3608C217.924 28.0933 218.37 27.7366 218.697 27.2907C219.054 26.8448 219.321 26.3394 219.47 25.8044C219.648 25.2693 219.737 24.7045 219.737 24.1397C219.737 23.5452 219.648 22.9506 219.44 22.3858C219.262 21.8507 218.994 21.3454 218.638 20.9292C218.281 20.513 217.865 20.1563 217.359 19.9185C216.289 19.4132 215.041 19.4132 214 19.9482C213.525 20.2158 213.079 20.5725 212.722 20.9887C212.365 21.4346 212.098 21.9399 211.919 22.475C211.8 23.0398 211.711 23.5749 211.711 24.1694Z" fill="#212121"/>
<path d="M229.547 28.7773C230.112 28.807 230.706 28.6584 231.212 28.3908C231.628 28.153 232.014 27.7963 232.282 27.3801C232.549 26.9342 232.757 26.4586 232.847 25.9235C232.965 25.3884 233.025 24.8236 233.025 24.2588V17.8379H235.046V24.2588C235.046 25.0912 234.957 25.9235 234.749 26.7261C234.571 27.4693 234.244 28.153 233.798 28.7475C233.352 29.3421 232.757 29.788 232.103 30.115C231.331 30.4717 230.468 30.65 229.606 30.6203C228.715 30.65 227.853 30.4717 227.05 30.0852C226.396 29.7582 225.801 29.2826 225.356 28.6881C224.91 28.0936 224.612 27.3801 224.434 26.6667C224.226 25.8938 224.137 25.0912 224.137 24.2886V17.8676H226.128V24.2886C226.128 24.8534 226.188 25.4182 226.307 25.983C226.396 26.4883 226.604 26.9937 226.872 27.4396C227.139 27.8557 227.496 28.2125 227.942 28.4503C228.388 28.6584 228.952 28.807 229.547 28.7773Z" fill="#212121"/>
<path d="M238.02 30.5014V17.8379H243.341C243.876 17.8379 244.44 17.9568 244.916 18.1946C245.392 18.4324 245.808 18.7297 246.165 19.1459C246.521 19.5323 246.789 19.9782 246.967 20.4538C247.175 20.9295 247.264 21.4348 247.264 21.9699C247.264 22.505 247.175 23.0103 246.997 23.5157C246.819 23.9913 246.551 24.4372 246.224 24.8236C245.897 25.2101 245.481 25.5371 245.035 25.7452C244.559 25.983 244.024 26.1019 243.46 26.1019H240.011V30.5014H238.02ZM240.011 24.3183H243.311C243.578 24.3183 243.846 24.2588 244.084 24.1399C244.322 24.021 244.53 23.8427 244.678 23.6346C244.857 23.3968 244.976 23.1589 245.065 22.8914C245.154 22.5941 245.213 22.2671 245.213 21.9402C245.213 21.6132 245.154 21.2862 245.065 20.9889C244.976 20.7214 244.827 20.4538 244.619 20.2457C244.44 20.0377 244.203 19.889 243.965 19.7701C243.727 19.6512 243.459 19.5918 243.222 19.5918H240.011V24.3183Z" fill="#212121"/>
<path d="M81.201 37.3114H82.1565V41.7314L86.427 37.3114H87.649L83.2875 41.8289L88.0065 46.6714H86.7585L82.1565 41.9914V46.6714H81.201V37.3114ZM91.3308 46.8664C90.6461 46.8664 90.0524 46.7104 89.5498 46.3984C89.0514 46.0821 88.6701 45.6444 88.4058 45.0854C88.1414 44.5264 88.0093 43.8829 88.0093 43.1549C88.0093 42.4226 88.1436 41.7769 88.4123 41.2179C88.6809 40.6589 89.0644 40.2256 89.5628 39.9179C90.0654 39.6102 90.6548 39.4564 91.3308 39.4564C92.0198 39.4564 92.6134 39.6124 93.1118 39.9244C93.6144 40.2364 93.9979 40.6719 94.2623 41.2309C94.5266 41.7899 94.6588 42.4312 94.6588 43.1549C94.6588 43.8916 94.5244 44.5394 94.2558 45.0984C93.9914 45.6574 93.6079 46.0929 93.1053 46.4049C92.6069 46.7126 92.0154 46.8664 91.3308 46.8664ZM91.3308 45.9499C91.8378 45.9499 92.2646 45.8351 92.6113 45.6054C92.9579 45.3714 93.2158 45.0464 93.3848 44.6304C93.5581 44.2101 93.6448 43.7182 93.6448 43.1549C93.6448 42.2882 93.4476 41.6079 93.0533 41.1139C92.6633 40.6199 92.0891 40.3729 91.3308 40.3729C90.5681 40.3729 89.9918 40.6242 89.6018 41.1269C89.2161 41.6252 89.0233 42.3012 89.0233 43.1549C89.0233 43.7226 89.1099 44.2166 89.2833 44.6369C89.4609 45.0572 89.7209 45.3822 90.0633 45.6119C90.4099 45.8372 90.8324 45.9499 91.3308 45.9499ZM96.0861 39.6514H96.9376L99.6741 45.3974L102.417 39.6514H103.262V46.6714H102.339V41.6924L99.9796 46.6714H99.3751L97.0156 41.6924V46.6714H96.0861V39.6514ZM105.074 39.6514H110.658V46.6714H109.702V40.5679H106.03V46.6714H105.074V39.6514ZM111.832 45.8329C111.923 45.8502 112.016 45.8589 112.112 45.8589C112.285 45.8589 112.422 45.8199 112.521 45.7419C112.625 45.6596 112.701 45.5447 112.749 45.3974C112.801 45.2501 112.848 45.0486 112.892 44.7929C112.991 44.1992 113.078 43.4994 113.152 42.6934C113.225 41.8831 113.299 40.8691 113.373 39.6514H118.144V46.6714H117.195V40.5679H114.257C114.096 42.8342 113.927 44.4159 113.75 45.3129C113.685 45.6509 113.605 45.9217 113.509 46.1254C113.414 46.3291 113.282 46.4829 113.113 46.5869C112.948 46.6909 112.731 46.7429 112.463 46.7429C112.294 46.7429 112.084 46.7191 111.832 46.6714V45.8329ZM120.59 43.4279C120.629 44.2339 120.848 44.8557 121.247 45.2934C121.645 45.7311 122.194 45.9499 122.891 45.9499C123.39 45.9499 123.827 45.8351 124.204 45.6054C124.581 45.3714 124.878 45.0356 125.095 44.5979L125.985 44.9424C125.708 45.5534 125.301 46.0279 124.763 46.3659C124.226 46.6996 123.615 46.8664 122.93 46.8664C122.254 46.8664 121.663 46.7147 121.156 46.4114C120.649 46.1081 120.257 45.6812 119.979 45.1309C119.706 44.5762 119.57 43.9306 119.57 43.1939C119.57 42.4356 119.704 41.7747 119.973 41.2114C120.246 40.6481 120.631 40.2147 121.13 39.9114C121.632 39.6081 122.22 39.4564 122.891 39.4564C123.563 39.4564 124.139 39.6081 124.62 39.9114C125.106 40.2104 125.476 40.6437 125.732 41.2114C125.992 41.7747 126.122 42.4464 126.122 43.2264V43.4279H120.59ZM122.917 40.3339C122.246 40.3339 121.71 40.5311 121.312 40.9254C120.917 41.3197 120.683 41.8874 120.61 42.6284H125.121C125.051 41.8701 124.83 41.2981 124.458 40.9124C124.085 40.5267 123.572 40.3339 122.917 40.3339ZM127.564 39.6514H128.526V43.0314L131.659 39.6514H132.933L129.644 43.1614L133.362 46.6714H131.971L128.526 43.2914V46.6714H127.558L127.564 39.6514ZM136.799 46.8664C136.105 46.8664 135.512 46.7104 135.018 46.3984C134.528 46.0864 134.153 45.6509 133.893 45.0919C133.637 44.5329 133.505 43.8894 133.497 43.1614C133.505 42.4204 133.64 41.7726 133.9 41.2179C134.16 40.6589 134.537 40.2256 135.031 39.9179C135.525 39.6102 136.116 39.4564 136.805 39.4564C137.273 39.4564 137.706 39.5344 138.105 39.6904C138.504 39.8464 138.844 40.0717 139.126 40.3664C139.407 40.6567 139.613 41.0012 139.743 41.3999L138.807 41.6989C138.642 41.2829 138.38 40.9579 138.021 40.7239C137.665 40.4899 137.258 40.3729 136.799 40.3729C136.049 40.3729 135.481 40.6242 135.096 41.1269C134.714 41.6296 134.519 42.3077 134.511 43.1614C134.519 44.0237 134.719 44.7041 135.109 45.2024C135.499 45.7007 136.062 45.9499 136.799 45.9499C137.275 45.9499 137.68 45.8416 138.014 45.6249C138.352 45.4039 138.608 45.0832 138.781 44.6629L139.743 44.9489C139.479 45.5729 139.095 46.0496 138.593 46.3789C138.09 46.7039 137.492 46.8664 136.799 46.8664ZM141.078 39.6514H142.034V42.6999H145.992V39.6514H146.948V46.6714H145.992V43.6164H142.034V46.6714H141.078V39.6514ZM151.697 46.8664C151.012 46.8664 150.419 46.7104 149.916 46.3984C149.418 46.0821 149.036 45.6444 148.772 45.0854C148.508 44.5264 148.375 43.8829 148.375 43.1549C148.375 42.4226 148.51 41.7769 148.778 41.2179C149.047 40.6589 149.431 40.2256 149.929 39.9179C150.432 39.6102 151.021 39.4564 151.697 39.4564C152.386 39.4564 152.98 39.6124 153.478 39.9244C153.981 40.2364 154.364 40.6719 154.628 41.2309C154.893 41.7899 155.025 42.4312 155.025 43.1549C155.025 43.8916 154.891 44.5394 154.622 45.0984C154.358 45.6574 153.974 46.0929 153.471 46.4049C152.973 46.7126 152.382 46.8664 151.697 46.8664ZM151.697 45.9499C152.204 45.9499 152.631 45.8351 152.977 45.6054C153.324 45.3714 153.582 45.0464 153.751 44.6304C153.924 44.2101 154.011 43.7182 154.011 43.1549C154.011 42.2882 153.814 41.6079 153.419 41.1139C153.029 40.6199 152.455 40.3729 151.697 40.3729C150.934 40.3729 150.358 40.6242 149.968 41.1269C149.582 41.6252 149.389 42.3012 149.389 43.1549C149.389 43.7226 149.476 44.2166 149.649 44.6369C149.827 45.0572 150.087 45.3822 150.429 45.6119C150.776 45.8372 151.199 45.9499 151.697 45.9499ZM157.089 43.4279C157.128 44.2339 157.347 44.8557 157.746 45.2934C158.144 45.7311 158.693 45.9499 159.39 45.9499C159.889 45.9499 160.326 45.8351 160.703 45.6054C161.08 45.3714 161.377 45.0356 161.594 44.5979L162.484 44.9424C162.207 45.5534 161.8 46.0279 161.262 46.3659C160.725 46.6996 160.114 46.8664 159.429 46.8664C158.753 46.8664 158.162 46.7147 157.655 46.4114C157.148 46.1081 156.756 45.6812 156.478 45.1309C156.205 44.5762 156.069 43.9306 156.069 43.1939C156.069 42.4356 156.203 41.7747 156.472 41.2114C156.745 40.6481 157.13 40.2147 157.629 39.9114C158.131 39.6081 158.719 39.4564 159.39 39.4564C160.062 39.4564 160.638 39.6081 161.119 39.9114C161.605 40.2104 161.975 40.6437 162.231 41.2114C162.491 41.7747 162.621 42.4464 162.621 43.2264V43.4279H157.089ZM159.416 40.3339C158.745 40.3339 158.209 40.5311 157.811 40.9254C157.416 41.3197 157.182 41.8874 157.109 42.6284H161.62C161.55 41.8701 161.329 41.2981 160.957 40.9124C160.584 40.5267 160.071 40.3339 159.416 40.3339ZM166.659 39.6514H172.243V46.6714H171.287V40.5679H167.615V46.6714H166.659V39.6514ZM177.259 39.4564C177.883 39.4564 178.427 39.6167 178.89 39.9374C179.358 40.2581 179.716 40.7001 179.963 41.2634C180.21 41.8224 180.333 42.4529 180.333 43.1549C180.333 43.8612 180.21 44.4961 179.963 45.0594C179.716 45.6227 179.356 46.0647 178.884 46.3854C178.416 46.7061 177.861 46.8664 177.22 46.8664C176.756 46.8664 176.338 46.7776 175.965 46.5999C175.597 46.4179 175.283 46.1622 175.023 45.8329V49.7914H174.061V39.6514H174.919V40.6199C175.183 40.2472 175.512 39.9612 175.907 39.7619C176.301 39.5582 176.752 39.4564 177.259 39.4564ZM177.122 45.9759C177.595 45.9759 177.995 45.8546 178.325 45.6119C178.654 45.3692 178.901 45.0356 179.066 44.6109C179.235 44.1819 179.319 43.6966 179.319 43.1549C179.319 42.6132 179.237 42.1322 179.072 41.7119C178.912 41.2872 178.665 40.9536 178.331 40.7109C177.998 40.4682 177.588 40.3469 177.103 40.3469C176.626 40.3469 176.223 40.4639 175.894 40.6979C175.569 40.9319 175.324 41.2612 175.159 41.6859C174.999 42.1062 174.919 42.5959 174.919 43.1549C174.919 43.7096 174.999 44.1992 175.159 44.6239C175.324 45.0442 175.571 45.3757 175.9 45.6184C176.23 45.8567 176.637 45.9759 177.122 45.9759ZM184.692 46.8664C184.007 46.8664 183.414 46.7104 182.911 46.3984C182.413 46.0821 182.031 45.6444 181.767 45.0854C181.503 44.5264 181.371 43.8829 181.371 43.1549C181.371 42.4226 181.505 41.7769 181.774 41.2179C182.042 40.6589 182.426 40.2256 182.924 39.9179C183.427 39.6102 184.016 39.4564 184.692 39.4564C185.381 39.4564 185.975 39.6124 186.473 39.9244C186.976 40.2364 187.359 40.6719 187.624 41.2309C187.888 41.7899 188.02 42.4312 188.02 43.1549C188.02 43.8916 187.886 44.5394 187.617 45.0984C187.353 45.6574 186.969 46.0929 186.467 46.4049C185.968 46.7126 185.377 46.8664 184.692 46.8664ZM184.692 45.9499C185.199 45.9499 185.626 45.8351 185.973 45.6054C186.319 45.3714 186.577 45.0464 186.746 44.6304C186.919 44.2101 187.006 43.7182 187.006 43.1549C187.006 42.2882 186.809 41.6079 186.415 41.1139C186.025 40.6199 185.45 40.3729 184.692 40.3729C183.929 40.3729 183.353 40.6242 182.963 41.1269C182.577 41.6252 182.385 42.3012 182.385 43.1549C182.385 43.7226 182.471 44.2166 182.645 44.6369C182.822 45.0572 183.082 45.3822 183.425 45.6119C183.771 45.8372 184.194 45.9499 184.692 45.9499ZM188.934 45.8524C189.194 45.8524 189.404 45.7982 189.564 45.6899C189.729 45.5772 189.859 45.4061 189.954 45.1764C190.054 44.9424 190.141 44.6261 190.214 44.2274C190.318 43.7031 190.399 43.1094 190.455 42.4464C190.511 41.7791 190.565 40.8474 190.617 39.6514H195.258V45.8524H195.934V48.2314H195.011V46.6714H189.85V48.2314H188.934V45.8524ZM194.309 40.4704H191.501C191.458 41.3457 191.406 42.1301 191.345 42.8234C191.285 43.5167 191.205 44.0779 191.105 44.5069C191.031 44.8579 190.955 45.1374 190.877 45.3454C190.799 45.5491 190.691 45.7181 190.552 45.8524H194.309V40.4704ZM200.122 39.6514C200.291 39.6514 200.478 39.6622 200.681 39.6839C200.889 39.7012 201.078 39.7316 201.247 39.7749C201.645 39.8832 201.964 40.0977 202.202 40.4184C202.441 40.7391 202.56 41.1226 202.56 41.5689C202.56 42.0542 202.415 42.4486 202.124 42.7519C201.99 42.8992 201.843 43.0076 201.682 43.0769C201.825 43.1029 201.975 43.1636 202.131 43.2589C202.642 43.5666 202.898 44.0671 202.898 44.7604C202.898 45.2327 202.785 45.6227 202.56 45.9304C202.334 46.2381 202.025 46.4482 201.63 46.5609C201.37 46.6346 200.993 46.6714 200.499 46.6714H197.23V39.6514H200.122ZM200.155 42.7519C200.462 42.7519 200.712 42.7172 200.902 42.6479C201.119 42.5742 201.281 42.4442 201.39 42.2579C201.502 42.0716 201.559 41.8592 201.559 41.6209C201.559 41.3696 201.498 41.1529 201.377 40.9709C201.26 40.7846 201.091 40.6546 200.87 40.5809C200.662 40.5072 200.38 40.4704 200.025 40.4704H198.192V42.7519H200.155ZM200.454 45.8589C200.558 45.8589 200.677 45.8524 200.811 45.8394C200.946 45.8221 201.065 45.8004 201.169 45.7744C201.411 45.7137 201.596 45.5881 201.721 45.3974C201.847 45.2067 201.91 44.9857 201.91 44.7344C201.91 44.4311 201.819 44.1819 201.637 43.9869C201.459 43.7876 201.221 43.6641 200.922 43.6164C200.792 43.5861 200.59 43.5709 200.317 43.5709H198.192V45.8589H200.454ZM209.77 46.6714H208.841V41.2049L204.993 46.6714H204.187V39.6514H205.116V45.0724L208.971 39.6514H209.77V46.6714ZM213.779 43.1614L210.938 39.6514H212.017L214.786 43.1159V39.6514H215.67V43.1159L218.439 39.6514H219.512L216.671 43.1614L219.635 46.6714H218.524L215.67 43.2069V46.6714H214.786V43.2069L211.926 46.6714H210.815L213.779 43.1614ZM221.048 43.4279C221.087 44.2339 221.306 44.8557 221.705 45.2934C222.103 45.7311 222.652 45.9499 223.349 45.9499C223.848 45.9499 224.285 45.8351 224.662 45.6054C225.039 45.3714 225.336 45.0356 225.553 44.5979L226.443 44.9424C226.166 45.5534 225.759 46.0279 225.221 46.3659C224.684 46.6996 224.073 46.8664 223.388 46.8664C222.712 46.8664 222.121 46.7147 221.614 46.4114C221.107 46.1081 220.715 45.6812 220.437 45.1309C220.164 44.5762 220.028 43.9306 220.028 43.1939C220.028 42.4356 220.162 41.7747 220.431 41.2114C220.704 40.6481 221.089 40.2147 221.588 39.9114C222.09 39.6081 222.678 39.4564 223.349 39.4564C224.021 39.4564 224.597 39.6081 225.078 39.9114C225.564 40.2104 225.934 40.6437 226.19 41.2114C226.45 41.7747 226.58 42.4464 226.58 43.2264V43.4279H221.048ZM223.375 40.3339C222.704 40.3339 222.168 40.5311 221.77 40.9254C221.375 41.3197 221.141 41.8874 221.068 42.6284H225.579C225.509 41.8701 225.288 41.2981 224.916 40.9124C224.543 40.5267 224.03 40.3339 223.375 40.3339ZM228.016 39.6514H228.971V42.6999H232.93V39.6514H233.885V46.6714H232.93V43.6164H228.971V46.6714H228.016V39.6514ZM241.28 46.6714H240.35V41.2049L236.502 46.6714H235.696V39.6514H236.626V45.0724L240.48 39.6514H241.28V46.6714ZM243.735 43.4279C243.774 44.2339 243.993 44.8557 244.391 45.2934C244.79 45.7311 245.338 45.9499 246.036 45.9499C246.534 45.9499 246.972 45.8351 247.349 45.6054C247.726 45.3714 248.023 45.0356 248.239 44.5979L249.13 44.9424C248.853 45.5534 248.445 46.0279 247.908 46.3659C247.371 46.6996 246.76 46.8664 246.075 46.8664C245.399 46.8664 244.807 46.7147 244.3 46.4114C243.793 46.1081 243.401 45.6812 243.124 45.1309C242.851 44.5762 242.714 43.9306 242.714 43.1939C242.714 42.4356 242.849 41.7747 243.117 41.2114C243.39 40.6481 243.776 40.2147 244.274 39.9114C244.777 39.6081 245.364 39.4564 246.036 39.4564C246.708 39.4564 247.284 39.6081 247.765 39.9114C248.25 40.2104 248.621 40.6437 248.876 41.2114C249.136 41.7747 249.266 42.4464 249.266 43.2264V43.4279H243.735ZM246.062 40.3339C245.39 40.3339 244.855 40.5311 244.456 40.9254C244.062 41.3197 243.828 41.8874 243.754 42.6284H248.265C248.196 41.8701 247.975 41.2981 247.602 40.9124C247.23 40.5267 246.716 40.3339 246.062 40.3339ZM84.087 53.6514C84.256 53.6514 84.4423 53.6622 84.646 53.6839C84.854 53.7012 85.0425 53.7316 85.2115 53.7749C85.6102 53.8832 85.9287 54.0977 86.167 54.4184C86.4053 54.7391 86.5245 55.1226 86.5245 55.5689C86.5245 56.0542 86.3793 56.4486 86.089 56.7519C85.9547 56.8992 85.8073 57.0076 85.647 57.0769C85.79 57.1029 85.9395 57.1636 86.0955 57.2589C86.6068 57.5666 86.8625 58.0671 86.8625 58.7604C86.8625 59.2327 86.7498 59.6227 86.5245 59.9304C86.2992 60.2381 85.9893 60.4482 85.595 60.5609C85.335 60.6346 84.958 60.6714 84.464 60.6714H81.1945V53.6514H84.087ZM84.1195 56.7519C84.4272 56.7519 84.6763 56.7172 84.867 56.6479C85.0837 56.5742 85.2462 56.4442 85.3545 56.2579C85.4672 56.0716 85.5235 55.8592 85.5235 55.6209C85.5235 55.3696 85.4628 55.1529 85.3415 54.9709C85.2245 54.7846 85.0555 54.6546 84.8345 54.5809C84.6265 54.5072 84.3448 54.4704 83.9895 54.4704H82.1565V56.7519H84.1195ZM84.4185 59.8589C84.5225 59.8589 84.6417 59.8524 84.776 59.8394C84.9103 59.8221 85.0295 59.8004 85.1335 59.7744C85.3762 59.7137 85.5603 59.5881 85.686 59.3974C85.8117 59.2067 85.8745 58.9857 85.8745 58.7344C85.8745 58.4311 85.7835 58.1819 85.6015 57.9869C85.4238 57.7876 85.1855 57.6641 84.8865 57.6164C84.7565 57.5861 84.555 57.5709 84.282 57.5709H82.1565V59.8589H84.4185ZM96.3376 60.6714H95.4081V55.2049L91.5601 60.6714H90.7541V53.6514H91.6836V59.0724L95.5381 53.6514H96.3376V60.6714ZM98.1555 53.6514H99.111V56.6999H103.069V53.6514H104.025V60.6714H103.069V57.6164H99.111V60.6714H98.1555V53.6514ZM107.747 54.5354H105.258V53.6514H111.192V54.5354H108.703V60.6714H107.747V54.5354ZM113.062 57.4279C113.101 58.2339 113.32 58.8557 113.718 59.2934C114.117 59.7311 114.665 59.9499 115.363 59.9499C115.861 59.9499 116.299 59.8351 116.676 59.6054C117.053 59.3714 117.35 59.0356 117.566 58.5979L118.457 58.9424C118.18 59.5534 117.772 60.0279 117.235 60.3659C116.698 60.6996 116.087 60.8664 115.402 60.8664C114.726 60.8664 114.134 60.7147 113.627 60.4114C113.12 60.1081 112.728 59.6812 112.451 59.1309C112.178 58.5762 112.041 57.9306 112.041 57.1939C112.041 56.4356 112.176 55.7747 112.444 55.2114C112.717 54.6481 113.103 54.2147 113.601 53.9114C114.104 53.6081 114.691 53.4564 115.363 53.4564C116.035 53.4564 116.611 53.6081 117.092 53.9114C117.577 54.2104 117.948 54.6437 118.203 55.2114C118.463 55.7747 118.593 56.4464 118.593 57.2264V57.4279H113.062ZM115.389 54.3339C114.717 54.3339 114.182 54.5311 113.783 54.9254C113.389 55.3197 113.155 55.8874 113.081 56.6284H117.592C117.523 55.8701 117.302 55.2981 116.929 54.9124C116.557 54.5267 116.043 54.3339 115.389 54.3339ZM123.227 53.4564C123.851 53.4564 124.395 53.6167 124.859 53.9374C125.327 54.2581 125.684 54.7001 125.931 55.2634C126.178 55.8224 126.302 56.4529 126.302 57.1549C126.302 57.8612 126.178 58.4961 125.931 59.0594C125.684 59.6227 125.325 60.0647 124.852 60.3854C124.384 60.7061 123.83 60.8664 123.188 60.8664C122.725 60.8664 122.307 60.7776 121.934 60.5999C121.566 60.4179 121.251 60.1622 120.991 59.8329V63.7914H120.029V53.6514H120.887V54.6199C121.152 54.2472 121.481 53.9612 121.875 53.7619C122.27 53.5582 122.72 53.4564 123.227 53.4564ZM123.091 59.9759C123.563 59.9759 123.964 59.8546 124.293 59.6119C124.623 59.3692 124.87 59.0356 125.034 58.6109C125.203 58.1819 125.288 57.6966 125.288 57.1549C125.288 56.6132 125.206 56.1322 125.041 55.7119C124.881 55.2872 124.634 54.9536 124.3 54.7109C123.966 54.4682 123.557 54.3469 123.071 54.3469C122.595 54.3469 122.192 54.4639 121.862 54.6979C121.537 54.9319 121.293 55.2612 121.128 55.6859C120.968 56.1062 120.887 56.5959 120.887 57.1549C120.887 57.7096 120.968 58.1992 121.128 58.6239C121.293 59.0442 121.54 59.3757 121.869 59.6184C122.198 59.8567 122.606 59.9759 123.091 59.9759ZM127.723 53.6514H128.678V56.6999H132.637V53.6514H133.592V60.6714H132.637V57.6164H128.678V60.6714H127.723V53.6514ZM136.041 57.4279C136.08 58.2339 136.298 58.8557 136.697 59.2934C137.096 59.7311 137.644 59.9499 138.342 59.9499C138.84 59.9499 139.278 59.8351 139.655 59.6054C140.032 59.3714 140.328 59.0356 140.545 58.5979L141.436 58.9424C141.158 59.5534 140.751 60.0279 140.214 60.3659C139.676 60.6996 139.065 60.8664 138.381 60.8664C137.705 60.8664 137.113 60.7147 136.606 60.4114C136.099 60.1081 135.707 59.6812 135.43 59.1309C135.157 58.5762 135.02 57.9306 135.02 57.1939C135.02 56.4356 135.154 55.7747 135.423 55.2114C135.696 54.6481 136.082 54.2147 136.58 53.9114C137.083 53.6081 137.67 53.4564 138.342 53.4564C139.013 53.4564 139.59 53.6081 140.071 53.9114C140.556 54.2104 140.926 54.6437 141.182 55.2114C141.442 55.7747 141.572 56.4464 141.572 57.2264V57.4279H136.041ZM138.368 54.3339C137.696 54.3339 137.161 54.5311 136.762 54.9254C136.368 55.3197 136.134 55.8874 136.06 56.6284H140.571C140.502 55.8701 140.281 55.2981 139.908 54.9124C139.535 54.5267 139.022 54.3339 138.368 54.3339ZM144.83 54.5354H142.341V53.6514H148.275V54.5354H145.786V60.6714H144.83V54.5354ZM150.145 57.4279C150.184 58.2339 150.403 58.8557 150.801 59.2934C151.2 59.7311 151.748 59.9499 152.446 59.9499C152.944 59.9499 153.382 59.8351 153.759 59.6054C154.136 59.3714 154.433 59.0356 154.649 58.5979L155.54 58.9424C155.263 59.5534 154.855 60.0279 154.318 60.3659C153.781 60.6996 153.17 60.8664 152.485 60.8664C151.809 60.8664 151.217 60.7147 150.71 60.4114C150.203 60.1081 149.811 59.6812 149.534 59.1309C149.261 58.5762 149.124 57.9306 149.124 57.1939C149.124 56.4356 149.259 55.7747 149.527 55.2114C149.8 54.6481 150.186 54.2147 150.684 53.9114C151.187 53.6081 151.774 53.4564 152.446 53.4564C153.118 53.4564 153.694 53.6081 154.175 53.9114C154.66 54.2104 155.031 54.6437 155.286 55.2114C155.546 55.7747 155.676 56.4464 155.676 57.2264V57.4279H150.145ZM152.472 54.3339C151.8 54.3339 151.265 54.5311 150.866 54.9254C150.472 55.3197 150.238 55.8874 150.164 56.6284H154.675C154.606 55.8701 154.385 55.2981 154.012 54.9124C153.64 54.5267 153.126 54.3339 152.472 54.3339Z" fill="#4D4D4D"/>
<mask id="path-15-inside-1_958_1415" fill="white">
<path fill-rule="evenodd" clip-rule="evenodd" d="M20.136 11.811C24.4585 9.14831 29.5491 7.6123 34.9984 7.6123C40.3933 7.6123 45.4367 9.11782 49.7312 11.7317L53.1576 6.0878C47.6562 2.74537 41.3397 0.98494 34.9027 1.0001C28.4656 1.01525 22.1574 2.80542 16.6719 6.17371L20.136 11.811Z"/>
</mask>
<path fill-rule="evenodd" clip-rule="evenodd" d="M20.136 11.811C24.4585 9.14831 29.5491 7.6123 34.9984 7.6123C40.3933 7.6123 45.4367 9.11782 49.7312 11.7317L53.1576 6.0878C47.6562 2.74537 41.3397 0.98494 34.9027 1.0001C28.4656 1.01525 22.1574 2.80542 16.6719 6.17371L20.136 11.811Z" fill="#638FFF"/>
<path d="M20.136 11.811L19.284 12.3346L19.8081 13.1875L20.6605 12.6624L20.136 11.811ZM49.7312 11.7317L49.2113 12.5859L50.0665 13.1064L50.586 12.2506L49.7312 11.7317ZM53.1576 6.0878L54.0124 6.60674L54.5312 5.75223L53.6768 5.23317L53.1576 6.0878ZM34.9027 1.0001L34.905 2.00009L34.9027 1.0001ZM16.6719 6.17371L16.1486 5.32153L15.2962 5.84497L15.8199 6.69726L16.6719 6.17371ZM34.9984 6.6123C29.3586 6.6123 24.0872 8.20254 19.6115 10.9596L20.6605 12.6624C24.8298 10.0941 29.7396 8.6123 34.9984 8.6123V6.6123ZM50.2511 10.8774C45.8044 8.17096 40.5819 6.6123 34.9984 6.6123V8.6123C40.2048 8.6123 45.069 10.0647 49.2113 12.5859L50.2511 10.8774ZM52.3028 5.56885L48.8764 11.2127L50.586 12.2506L54.0124 6.60674L52.3028 5.56885ZM34.905 2.00009C41.1581 1.98537 47.2942 3.6955 52.6384 6.94242L53.6768 5.23317C48.0183 1.79525 41.5213 -0.0154907 34.9003 9.98378e-05L34.905 2.00009ZM17.1951 7.02588C22.524 3.75383 28.6519 2.01482 34.905 2.00009L34.9003 9.98378e-05C28.2793 0.0156903 21.7909 1.857 16.1486 5.32153L17.1951 7.02588ZM20.988 11.2875L17.5239 5.65016L15.8199 6.69726L19.284 12.3346L20.988 11.2875Z" fill="white" mask="url(#path-15-inside-1_958_1415)"/>
<mask id="path-17-inside-2_958_1415" fill="white">
<path fill-rule="evenodd" clip-rule="evenodd" d="M49.1914 11.4117C57.6712 16.3194 63.376 25.4897 63.376 35.9924C63.376 36.3122 63.3708 36.6308 63.3603 36.948L69.9773 37.1695C69.99 36.7792 69.9964 36.3889 69.9964 35.9986C69.9924 29.8554 68.3735 23.8212 65.302 18.5011C62.2305 13.181 57.8144 8.76195 52.4965 5.68701L49.1914 11.4117Z"/>
</mask>
<path fill-rule="evenodd" clip-rule="evenodd" d="M49.1914 11.4117C57.6712 16.3194 63.376 25.4897 63.376 35.9924C63.376 36.3122 63.3708 36.6308 63.3603 36.948L69.9773 37.1695C69.99 36.7792 69.9964 36.3889 69.9964 35.9986C69.9924 29.8554 68.3735 23.8212 65.302 18.5011C62.2305 13.181 57.8144 8.76195 52.4965 5.68701L49.1914 11.4117Z" fill="#638FFF"/>
<path d="M49.1914 11.4117L48.3254 10.9117L47.8259 11.7768L48.6905 12.2772L49.1914 11.4117ZM63.3603 36.948L62.3608 36.915L62.3278 37.914L63.3268 37.9475L63.3603 36.948ZM69.9773 37.1695L69.9438 38.169L70.9441 38.2025L70.9768 37.2021L69.9773 37.1695ZM69.9964 35.9986H70.9964V35.9979L69.9964 35.9986ZM65.302 18.5011L66.168 18.0011L65.302 18.5011ZM52.4965 5.68701L52.997 4.82131L52.1308 4.32041L51.6304 5.18702L52.4965 5.68701ZM64.376 35.9924C64.376 25.1184 58.4683 15.6254 49.6923 10.5462L48.6905 12.2772C56.8741 17.0135 62.376 25.861 62.376 35.9924H64.376ZM64.3597 36.9811C64.3706 36.6528 64.376 36.3232 64.376 35.9924H62.376C62.376 36.3012 62.3709 36.6087 62.3608 36.915L64.3597 36.9811ZM70.0108 36.1701L63.3937 35.9486L63.3268 37.9475L69.9438 38.169L70.0108 36.1701ZM68.9964 35.9986C68.9964 36.378 68.9902 36.7575 68.9778 37.137L70.9768 37.2021C70.9898 36.801 70.9964 36.3998 70.9964 35.9986H68.9964ZM64.4359 19.0011C67.4198 24.1694 68.9925 30.0314 68.9964 35.9992L70.9964 35.9979C70.9923 29.6794 69.3271 23.4731 66.168 18.0011L64.4359 19.0011ZM51.9959 6.55271C57.162 9.53988 61.4521 13.8328 64.4359 19.0011L66.168 18.0011C63.0089 12.5292 58.4667 7.98401 52.997 4.82131L51.9959 6.55271ZM50.0574 11.9117L53.3625 6.187L51.6304 5.18702L48.3254 10.9117L50.0574 11.9117Z" fill="white" mask="url(#path-17-inside-2_958_1415)"/>
<mask id="path-19-inside-3_958_1415" fill="white">
<path fill-rule="evenodd" clip-rule="evenodd" d="M48.4512 60.9886L51.5897 66.8192C57.1551 63.8231 61.8054 59.3756 65.0468 53.9491C68.2882 48.5226 69.9997 42.3195 69.9996 35.9985H63.3792C63.3769 46.8028 57.3376 56.1961 48.4512 60.9886Z"/>
</mask>
<path fill-rule="evenodd" clip-rule="evenodd" d="M48.4512 60.9886L51.5897 66.8192C57.1551 63.8231 61.8054 59.3756 65.0468 53.9491C68.2882 48.5226 69.9997 42.3195 69.9996 35.9985H63.3792C63.3769 46.8028 57.3376 56.1961 48.4512 60.9886Z" fill="#638FFF"/>
<path d="M51.5897 66.8192L50.7091 67.2932L51.1831 68.1738L52.0637 67.6997L51.5897 66.8192ZM48.4512 60.9886L47.9765 60.1084L47.097 60.5827L47.5706 61.4625L48.4512 60.9886ZM65.0468 53.9491L65.9053 54.4619L65.0468 53.9491ZM69.9996 35.9985L70.9996 35.9985L70.9995 34.9985H69.9996V35.9985ZM63.3792 35.9985V34.9985H62.3794L62.3792 35.9983L63.3792 35.9985ZM52.4702 66.3452L49.3317 60.5146L47.5706 61.4625L50.7091 67.2932L52.4702 66.3452ZM64.1883 53.4363C61.0395 58.7078 56.5221 63.0282 51.1156 65.9387L52.0637 67.6997C57.7882 64.618 62.5713 60.0435 65.9053 54.4619L64.1883 53.4363ZM68.9996 35.9986C68.9997 42.139 67.3371 48.1648 64.1883 53.4363L65.9053 54.4619C69.2393 48.8804 70.9997 42.5001 70.9996 35.9985L68.9996 35.9986ZM63.3792 36.9985H69.9996V34.9985H63.3792V36.9985ZM48.9258 61.8687C58.1229 56.9088 64.3769 47.185 64.3792 35.9987L62.3792 35.9983C62.377 46.4205 56.5524 55.4835 47.9765 60.1084L48.9258 61.8687Z" fill="white" mask="url(#path-19-inside-3_958_1415)"/>
<mask id="path-21-inside-4_958_1415" fill="white">
<path fill-rule="evenodd" clip-rule="evenodd" d="M49.189 60.5759C45.015 62.9904 40.1691 64.3723 35.0004 64.3723C29.5586 64.3723 24.4745 62.8405 20.1558 60.1846L16.6914 65.8294C22.0636 69.1267 28.2266 70.9119 34.5293 70.9965C40.832 71.081 47.0406 69.4618 52.4994 66.3099L49.189 60.5759Z"/>
</mask>
<path fill-rule="evenodd" clip-rule="evenodd" d="M49.189 60.5759C45.015 62.9904 40.1691 64.3723 35.0004 64.3723C29.5586 64.3723 24.4745 62.8405 20.1558 60.1846L16.6914 65.8294C22.0636 69.1267 28.2266 70.9119 34.5293 70.9965C40.832 71.081 47.0406 69.4618 52.4994 66.3099L49.189 60.5759Z" fill="#638FFF"/>
<path d="M49.189 60.5759L50.055 60.0759L49.5546 59.2092L48.6883 59.7103L49.189 60.5759ZM20.1558 60.1846L20.6796 59.3328L19.8271 58.8084L19.3035 59.6615L20.1558 60.1846ZM16.6914 65.8294L15.8391 65.3064L15.3161 66.1586L16.1683 66.6817L16.6914 65.8294ZM34.5293 70.9965L34.5159 71.9964L34.5293 70.9965ZM52.4994 66.3099L52.9994 67.1759L53.8654 66.6759L53.3654 65.8099L52.4994 66.3099ZM35.0004 65.3723C40.3496 65.3723 45.3677 63.9417 49.6897 61.4415L48.6883 59.7103C44.6624 62.0391 39.9886 63.3723 35.0004 63.3723V65.3723ZM19.6319 61.0364C24.1037 63.7864 29.3684 65.3723 35.0004 65.3723V63.3723C29.7488 63.3723 24.8453 61.8946 20.6796 59.3328L19.6319 61.0364ZM17.5437 66.3525L21.0081 60.7076L19.3035 59.6615L15.8391 65.3064L17.5437 66.3525ZM34.5427 69.9966C28.4201 69.9144 22.4332 68.1802 17.2145 64.9772L16.1683 66.6817C21.694 70.0732 28.0331 71.9094 34.5159 71.9964L34.5427 69.9966ZM51.9994 65.4439C46.6966 68.5058 40.6654 70.0787 34.5427 69.9966L34.5159 71.9964C40.9987 72.0834 47.3847 70.4179 52.9994 67.1759L51.9994 65.4439ZM48.323 61.0759L51.6334 66.8099L53.3654 65.8099L50.055 60.0759L48.323 61.0759Z" fill="white" mask="url(#path-21-inside-4_958_1415)"/>
<mask id="path-23-inside-5_958_1415" fill="white">
<path fill-rule="evenodd" clip-rule="evenodd" d="M20.8083 60.5741L17.4999 66.3034C12.1829 63.229 7.76743 58.811 4.69601 53.4921C1.62458 48.1732 0.00513524 42.1403 0 35.9982C0 35.5931 0.0074242 35.1879 0.0222726 34.7827L6.63847 35.0126C6.62744 35.3379 6.62187 35.6645 6.62187 35.9924C6.62187 46.4959 12.3275 55.6667 20.8083 60.5741Z"/>
</mask>
<path fill-rule="evenodd" clip-rule="evenodd" d="M20.8083 60.5741L17.4999 66.3034C12.1829 63.229 7.76743 58.811 4.69601 53.4921C1.62458 48.1732 0.00513524 42.1403 0 35.9982C0 35.5931 0.0074242 35.1879 0.0222726 34.7827L6.63847 35.0126C6.62744 35.3379 6.62187 35.6645 6.62187 35.9924C6.62187 46.4959 12.3275 55.6667 20.8083 60.5741Z" fill="#638FFF"/>
<path d="M20.8083 60.5741L21.6743 61.0742L22.1739 60.209L21.3092 59.7086L20.8083 60.5741ZM17.4999 66.3034L16.9993 67.1691L17.8655 67.67L18.3659 66.8035L17.4999 66.3034ZM4.69601 53.4921L5.56199 52.992L4.69601 53.4921ZM0 35.9982H-1L-1 35.9991L0 35.9982ZM0.0222726 34.7827L0.057003 33.7833L-0.940503 33.7487L-0.977057 34.7461L0.0222726 34.7827ZM6.63847 35.0126L7.63789 35.0465L7.67177 34.0479L6.6732 34.0132L6.63847 35.0126ZM19.9423 60.0741L16.6339 65.8034L18.3659 66.8035L21.6743 61.0742L19.9423 60.0741ZM18.0005 65.4377C12.8352 62.4511 8.54576 58.1591 5.56199 52.992L3.83002 53.9921C6.9891 59.4628 11.5306 64.007 16.9993 67.1691L18.0005 65.4377ZM5.56199 52.992C2.57822 47.8249 1.00499 41.9642 1 35.9974L-1 35.9991C-0.994718 42.3164 0.67094 48.5215 3.83002 53.9921L5.56199 52.992ZM1 35.9982C1 35.6053 1.0072 35.2123 1.0216 34.8193L-0.977057 34.7461C-0.992352 35.1635 -1 35.5808 -1 35.9982H1ZM-0.0124578 35.7821L6.60374 36.012L6.6732 34.0132L0.057003 33.7833L-0.0124578 35.7821ZM5.63904 34.9787C5.62763 35.3153 5.62187 35.6532 5.62187 35.9924H7.62187C7.62187 35.6758 7.62724 35.3605 7.63789 35.0465L5.63904 34.9787ZM5.62187 35.9924C5.62187 46.8672 11.5304 56.3608 20.3075 61.4397L21.3092 59.7086C13.1246 54.9726 7.62187 46.1246 7.62187 35.9924H5.62187Z" fill="white" mask="url(#path-23-inside-5_958_1415)"/>
<mask id="path-25-inside-6_958_1415" fill="white">
<path fill-rule="evenodd" clip-rule="evenodd" d="M4.68692 18.4925C7.75888 13.1699 12.178 8.75003 17.4999 5.67725L20.8086 11.41C12.3276 16.3174 6.62188 25.4883 6.62188 35.9919C6.62188 35.9941 6.62188 35.9962 6.62188 35.9984H1.0691e-06C-0.00151761 29.8528 1.61497 23.8151 4.68692 18.4925Z"/>
</mask>
<path fill-rule="evenodd" clip-rule="evenodd" d="M4.68692 18.4925C7.75888 13.1699 12.178 8.75003 17.4999 5.67725L20.8086 11.41C12.3276 16.3174 6.62188 25.4883 6.62188 35.9919C6.62188 35.9941 6.62188 35.9962 6.62188 35.9984H1.0691e-06C-0.00151761 29.8528 1.61497 23.8151 4.68692 18.4925Z" fill="#638FFF"/>
<path d="M17.4999 5.67725L18.366 5.17737L17.8661 4.31113L16.9999 4.81123L17.4999 5.67725ZM4.68692 18.4925L5.55302 18.9924L4.68692 18.4925ZM20.8086 11.41L21.3094 12.2756L22.174 11.7753L21.6747 10.9102L20.8086 11.41ZM6.62188 35.9984V36.9984H7.62188V35.9984H6.62188ZM1.0691e-06 35.9984L-0.999999 35.9986L-0.999752 36.9984H1.0691e-06V35.9984ZM16.9999 4.81123C11.5259 7.97181 6.98054 12.518 3.82083 17.9927L5.55302 18.9924C8.53721 13.8219 12.8301 9.52825 17.9999 6.54326L16.9999 4.81123ZM21.6747 10.9102L18.366 5.17737L16.6338 6.17712L19.9425 11.9099L21.6747 10.9102ZM20.3078 10.5445C11.5306 15.6233 5.62188 25.117 5.62188 35.9919H7.62188C7.62188 25.8596 13.1247 17.0116 21.3094 12.2756L20.3078 10.5445ZM5.62188 35.9919C5.62188 35.9931 5.62188 35.9943 5.62188 35.9954C5.62188 35.9965 5.62188 35.9974 5.62188 35.9984H7.62188C7.62188 35.9972 7.62188 35.996 7.62188 35.9949C7.62188 35.9938 7.62188 35.9929 7.62188 35.9919H5.62188ZM1.0691e-06 36.9984H6.62188V34.9984H1.0691e-06V36.9984ZM3.82083 17.9927C0.66111 23.4673 -1.00156 29.6775 -0.999999 35.9986L1 35.9981C0.998526 30.0281 2.56884 24.163 5.55302 18.9924L3.82083 17.9927Z" fill="white" mask="url(#path-25-inside-6_958_1415)"/>
<path d="M50.798 43.9564C49.2118 46.623 46.9415 49.0042 44.214 50.5376C41.4866 52.0709 38.3974 52.8734 35.2556 52.8648C25.3623 52.8648 17.3596 45.0913 17.3596 35.5C17.3596 25.9087 25.3784 18.1352 35.2717 18.1352C38.4504 18.1258 41.5746 18.9469 44.3247 20.5144C47.0747 22.0819 49.3519 24.4849 50.9234 27.2017H59C57.1795 22.4673 53.9316 18.2473 49.691 15.3778C45.4503 12.5084 40.4194 10.981 35.2717 11.0002C21.3144 11.0002 10 21.9698 10 35.5C10 49.0302 21.3144 59.9998 35.2717 59.9998C40.3855 60.019 45.3849 58.5119 49.609 55.6778C53.8331 52.8437 57.083 48.6453 58.9293 43.9564H50.798Z" fill="#392F94"/>
<path d="M44.0084 43.9561C42.872 45.0875 41.5152 46.1526 40.0192 46.7566C38.5232 47.3606 36.9187 47.6618 35.3016 47.6422C33.6466 47.6505 32.0061 47.3382 30.4739 46.723C28.9417 46.1079 27.5478 45.202 26.3717 44.0571C25.1956 42.9123 24.2604 41.5508 23.6196 40.0505C22.9788 38.5502 22.6448 36.9404 22.6368 35.3132V35.2626C22.6368 28.3901 28.3085 23.0064 35.3016 23.0064C38.7547 23.0064 41.8799 24.8052 44.1659 27.2014H51.2394C48.0917 21.3467 42.1339 17.4805 35.3016 17.4805C32.9054 17.4749 30.5316 17.9334 28.3157 18.8298C26.0997 19.7262 24.0851 21.043 22.3867 22.7049C20.6883 24.3668 19.3395 26.3414 18.4173 28.5159C17.4951 30.6903 17.0175 33.0221 17.0118 35.378C17.0061 37.734 17.4724 40.0679 18.3841 42.2467C19.2958 44.4254 20.635 46.4063 22.3253 48.0762C24.0156 49.746 26.0239 51.0722 28.2355 51.979C30.447 52.8857 32.8186 53.3553 35.2148 53.3609C38.8914 53.3601 42.478 52.2428 45.4842 50.1617V53.519H51.2716V43.9561H44.0084Z" fill="#638FFF"/>
</svg>
