<svg width="34" height="34" viewBox="0 0 34 34" fill="none" xmlns="http://www.w3.org/2000/svg">
<path d="M17.8012 17.0498L27.0046 7.84636C27.2121 7.63891 27.2121 7.30256 27.0046 7.09511C26.7971 6.88766 26.4608 6.88766 26.2533 7.09511L17.0499 16.2985L7.84641 7.09504C7.63896 6.88759 7.30261 6.88759 7.09516 7.09504C6.88764 7.3025 6.88764 7.63884 7.09516 7.8463L16.2985 17.0498L7.09509 26.2532C6.88757 26.4608 6.88757 26.797 7.09509 27.0046C7.19882 27.1083 7.33475 27.1602 7.47075 27.1602C7.60675 27.1602 7.74269 27.1083 7.84641 27.0046L17.0499 17.8011L26.2533 27.0046C26.3571 27.1083 26.493 27.1602 26.629 27.1602C26.765 27.1602 26.9009 27.1083 27.0046 27.0046C27.2121 26.797 27.2121 26.4608 27.0046 26.2532L17.8012 17.0498Z" fill="black"/>
</svg>
