<svg width="18" height="20" viewBox="0 0 18 20" fill="none" xmlns="http://www.w3.org/2000/svg">
<path fill-rule="evenodd" clip-rule="evenodd" d="M13.4109 0.768617L13.4119 1.51824C16.1665 1.73413 17.9862 3.61119 17.9891 6.48975L18 14.9155C18.0039 18.054 16.0322 19.985 12.8718 19.99L5.15188 20C2.01119 20.004 0.0148166 18.027 0.0108673 14.8795L6.64975e-06 6.55272C-0.00394266 3.65517 1.75153 1.78311 4.50617 1.53024L4.50518 0.780611C4.5042 0.340832 4.83001 0.00999726 5.26444 0.00999726C5.69886 0.00899776 6.02468 0.338833 6.02567 0.778612L6.02666 1.47826L11.8914 1.47027L11.8904 0.770616C11.8894 0.330837 12.2152 0.00100176 12.6497 2.26549e-06C13.0742 -0.000997234 13.4099 0.328838 13.4109 0.768617ZM13.0501 8.25917C12.5959 8.28016 12.2207 7.92034 12.2 7.46057C12.199 7.0008 12.5545 6.61999 13.0086 6.6C13.4529 6.599 13.8192 6.94883 13.8291 7.3986C13.8498 7.85837 13.4954 8.23918 13.0501 8.25917ZM4.95006 8.25927C4.49589 8.28026 4.1207 7.92044 4.09997 7.46067C4.09898 7.0009 4.45442 6.62009 4.90859 6.6001C5.35289 6.5991 5.71919 6.94892 5.72906 7.3987C5.7498 7.85847 5.39535 8.23928 4.95006 8.25927ZM9.02221 12.2189C8.56804 12.2389 8.19187 11.8801 8.17212 11.4203C8.17113 10.9605 8.52657 10.5797 8.98074 10.5597C9.42504 10.5587 9.79035 10.9085 9.80121 11.3583C9.82096 11.8181 9.46651 12.1979 9.02221 12.2189ZM12.2399 11.4043V11.4153C12.2498 11.8751 12.625 12.2239 13.0801 12.2139C13.5244 12.2029 13.8789 11.8221 13.869 11.3623C13.8483 10.9225 13.4918 10.5637 13.0485 10.5647C12.5944 10.5747 12.2389 10.9445 12.2399 11.4043ZM12.234 15.0435C12.235 15.5032 12.6013 15.882 13.0554 15.892C13.5185 15.891 13.8937 15.5102 13.8927 15.0405C13.8927 14.5707 13.5165 14.1919 13.0525 14.1919H13.0426C12.5884 14.2029 12.2241 14.5837 12.234 15.0435ZM8.17607 15.0485C8.1968 15.5082 8.57199 15.8671 9.02616 15.8471C9.47046 15.8261 9.82589 15.4463 9.80516 14.9855C9.79529 14.5367 9.42899 14.1869 8.98469 14.1879C8.53052 14.2089 8.17607 14.5887 8.17607 15.0485ZM4.95442 12.2539C4.50025 12.2749 4.12408 11.915 4.10433 11.4553C4.10334 10.9955 4.45779 10.6147 4.91196 10.5947C5.35725 10.5937 5.72256 10.9435 5.73243 11.3933C5.75317 11.8531 5.39872 12.2339 4.95442 12.2539ZM4.10827 15.0534C4.12901 15.5132 4.50419 15.873 4.95836 15.852C5.40365 15.832 5.7581 15.4512 5.73736 14.9915C5.72749 14.5417 5.36119 14.1919 4.91689 14.1929C4.46272 14.2129 4.10728 14.5937 4.10827 15.0534ZM8.20001 7.46067C8.22074 7.92044 8.59593 8.28026 9.0501 8.25927C9.49538 8.23928 9.84983 7.85847 9.8291 7.3987C9.81923 6.94892 9.45293 6.5991 9.00863 6.6001C8.55446 6.62009 8.19902 7.0009 8.20001 7.46067Z" fill="#01B5EE"/>
</svg>
