<svg width="18" height="21" viewBox="0 0 18 21" fill="none" xmlns="http://www.w3.org/2000/svg">
<path fill-rule="evenodd" clip-rule="evenodd" d="M13.4109 1.26862L13.4119 2.01824C16.1665 2.23414 17.9862 4.1112 17.9891 6.98975L18 15.4155C18.0039 18.554 16.0322 20.485 12.8718 20.49L5.15189 20.5C2.0112 20.504 0.0148232 18.527 0.0108739 15.3796L1.32771e-05 7.05272C-0.00393603 4.15517 1.75153 2.28311 4.50618 2.03024L4.50519 1.28061C4.5042 0.840834 4.83002 0.51 5.26445 0.51C5.69887 0.509 6.02469 0.838835 6.02568 1.27861L6.02666 1.97826L11.8914 1.97027L11.8904 1.27062C11.8894 0.830839 12.2152 0.501004 12.6497 0.500005C13.0742 0.499005 13.4099 0.82884 13.4109 1.26862ZM13.0501 8.75917C12.5959 8.78016 12.2207 8.42034 12.2 7.96057C12.199 7.5008 12.5545 7.11999 13.0086 7.1C13.4529 7.099 13.8192 7.44883 13.8291 7.8986C13.8498 8.35837 13.4954 8.73918 13.0501 8.75917ZM4.95007 8.75927C4.4959 8.78026 4.12071 8.42044 4.09998 7.96067C4.09899 7.5009 4.45443 7.12009 4.9086 7.1001C5.3529 7.0991 5.7192 7.44893 5.72907 7.8987C5.7498 8.35847 5.39535 8.73928 4.95007 8.75927ZM9.02221 12.7189C8.56804 12.7389 8.19187 12.3801 8.17213 11.9203C8.17114 11.4605 8.52658 11.0797 8.98075 11.0597C9.42505 11.0587 9.79036 11.4085 9.80122 11.8583C9.82096 12.3181 9.46651 12.6979 9.02221 12.7189ZM12.2399 11.9043V11.9153C12.2498 12.3751 12.625 12.7239 13.0801 12.7139C13.5244 12.7029 13.8789 12.3221 13.869 11.8623C13.8483 11.4225 13.4918 11.0637 13.0485 11.0647C12.5944 11.0747 12.2389 11.4445 12.2399 11.9043ZM12.234 15.5435C12.235 16.0032 12.6013 16.3821 13.0554 16.392C13.5185 16.391 13.8937 16.0102 13.8927 15.5405C13.8927 15.0707 13.5165 14.6919 13.0525 14.6919H13.0426C12.5884 14.7029 12.2241 15.0837 12.234 15.5435ZM8.17608 15.5485C8.19681 16.0082 8.57199 16.3671 9.02617 16.3471C9.47046 16.3261 9.8259 15.9463 9.80517 15.4855C9.79529 15.0367 9.429 14.6869 8.9847 14.6879C8.53053 14.7089 8.17608 15.0887 8.17608 15.5485ZM4.95442 12.7539C4.50025 12.7749 4.12408 12.415 4.10434 11.9553C4.10335 11.4955 4.4578 11.1147 4.91197 11.0947C5.35725 11.0937 5.72257 11.4435 5.73244 11.8933C5.75317 12.3531 5.39872 12.7339 4.95442 12.7539ZM4.10828 15.5534C4.12901 16.0132 4.5042 16.373 4.95837 16.352C5.40365 16.3321 5.7581 15.9512 5.73737 15.4915C5.7275 15.0417 5.3612 14.6919 4.9169 14.6929C4.46273 14.7129 4.10729 15.0937 4.10828 15.5534ZM8.20001 7.96067C8.22075 8.42044 8.59593 8.78026 9.0501 8.75927C9.49539 8.73928 9.84984 8.35847 9.82911 7.8987C9.81923 7.44893 9.45293 7.0991 9.00864 7.1001C8.55447 7.12009 8.19903 7.5009 8.20001 7.96067Z" fill="#07003B"/>
</svg>
