<svg width="25" height="29" viewBox="0 0 25 29" fill="none" xmlns="http://www.w3.org/2000/svg">
<path fill-rule="evenodd" clip-rule="evenodd" d="M18.6262 1.75185L18.6276 2.78704C22.4535 3.08519 24.9808 5.67732 24.9849 9.65246L25 21.288C25.0054 25.6221 22.2669 28.2888 17.8775 28.2957L7.15539 28.3095C2.79332 28.315 0.0205786 25.5849 0.0150934 21.2384L9.23576e-06 9.73942C-0.00547591 5.73804 2.43267 3.15282 6.25857 2.80361L6.2572 1.76841C6.25582 1.1611 6.70835 0.704235 7.31173 0.704235C7.91509 0.702854 8.36762 1.15834 8.36899 1.76565L8.37035 2.73183L16.5158 2.7208L16.5144 1.75462C16.513 1.1473 16.9655 0.691812 17.569 0.690433C18.1586 0.689052 18.6249 1.14454 18.6262 1.75185ZM18.1251 12.0959C17.4943 12.1249 16.9732 11.628 16.9444 10.9931C16.943 10.3582 17.4368 9.83232 18.0675 9.80471C18.6846 9.80333 19.1933 10.2864 19.2071 10.9075C19.2358 11.5425 18.7436 12.0683 18.1251 12.0959ZM6.87509 12.0961C6.2443 12.1251 5.7232 11.6282 5.69441 10.9933C5.69303 10.3583 6.1867 9.83245 6.81749 9.80485C7.43457 9.80347 7.94332 10.2866 7.95703 10.9077C7.98582 11.5426 7.49353 12.0685 6.87509 12.0961ZM12.5308 17.5641C11.9 17.5918 11.3776 17.0963 11.3502 16.4613C11.3488 15.8264 11.8425 15.3005 12.4733 15.2729C13.0903 15.2715 13.5977 15.7545 13.6128 16.3757C13.6402 17.0107 13.1479 17.5351 12.5308 17.5641ZM16.9999 16.4392V16.4544C17.0136 17.0894 17.5347 17.571 18.1668 17.5572C18.7839 17.542 19.2762 17.0162 19.2625 16.3812C19.2337 15.7739 18.7386 15.2784 18.1229 15.2798C17.4922 15.2936 16.9985 15.8043 16.9999 16.4392ZM16.9917 21.4648C16.993 22.0996 17.5018 22.6228 18.1325 22.6365C18.7757 22.6351 19.2968 22.1093 19.2954 21.4606C19.2954 20.8119 18.7729 20.2888 18.1285 20.2888H18.1147C17.4839 20.304 16.9779 20.8298 16.9917 21.4648ZM11.3557 21.4717C11.3844 22.1065 11.9055 22.6021 12.5363 22.5745C13.1534 22.5455 13.6471 22.021 13.6183 21.3847C13.6046 20.7649 13.0958 20.2819 12.4787 20.2832C11.8479 20.3122 11.3557 20.8367 11.3557 21.4717ZM6.88113 17.6125C6.25034 17.6415 5.72788 17.1445 5.70046 16.5096C5.69909 15.8747 6.19138 15.3488 6.82217 15.3212C7.44062 15.3198 7.948 15.8029 7.96171 16.424C7.9905 17.059 7.49821 17.5849 6.88113 17.6125ZM5.70594 21.4785C5.73473 22.1134 6.25582 22.6103 6.88662 22.5813C7.50506 22.5538 7.99735 22.0278 7.96856 21.393C7.95485 20.7718 7.4461 20.2888 6.82902 20.2901C6.19823 20.3178 5.70456 20.8436 5.70594 21.4785ZM11.3889 10.9933C11.4177 11.6282 11.9388 12.1251 12.5696 12.0961C13.188 12.0685 13.6803 11.5426 13.6515 10.9077C13.6378 10.2866 13.1291 9.80347 12.512 9.80485C11.8812 9.83245 11.3875 10.3583 11.3889 10.9933Z" fill="white"/>
</svg>
