<svg width="120" height="120" viewBox="0 0 120 120" fill="none" xmlns="http://www.w3.org/2000/svg">
<path d="M59.8493 119.228C92.487 119.228 118.945 92.5377 118.945 59.6139C118.945 26.69 92.487 0 59.8493 0C27.2117 0 0.753601 26.69 0.753601 59.6139C0.753601 92.5377 27.2117 119.228 59.8493 119.228Z" fill="url(#paint0_linear_674_3630)"/>
<path d="M72.6268 106.419C69.8317 107.225 67.0367 107.788 64.0819 108.111C47.9503 109.802 31.9785 103.438 21.2774 91.1127L29.423 83.8623C37.7284 93.61 50.2663 98.5241 62.9639 97.2352C81.2516 95.3017 95.8658 80.4788 97.7026 62.0308L108.484 63.078C106.487 83.7012 91.8729 100.78 72.6268 106.419Z" fill="white"/>
<defs>
<linearGradient id="paint0_linear_674_3630" x1="0.753601" y1="59.6139" x2="118.945" y2="59.6139" gradientUnits="userSpaceOnUse">
<stop stop-color="#00EAFF"/>
<stop offset="1" stop-color="#00BEF8"/>
</linearGradient>
</defs>
</svg>
