<?xml version="1.0" encoding="UTF-8"?> <svg xmlns="http://www.w3.org/2000/svg" width="37" height="37" viewBox="0 0 37 37" fill="none"> <rect width="37" height="37" fill="#D9D9D9"></rect> <rect width="37" height="37" fill="url(#paint0_linear_875_8232)"></rect> <path d="M25 12L21 16M21 16V13M21 16H24" stroke="white" stroke-width="1.5" stroke-linecap="round" stroke-linejoin="round"></path> <path d="M16.0376 12.3162L16.6866 13.4791C17.2723 14.5286 17.0372 15.9053 16.1147 16.8278C16.1147 16.8278 16.1147 16.8278 16.1147 16.8278C16.1146 16.8279 14.9959 17.9468 17.0245 19.9755C19.0525 22.0035 20.1714 20.8861 20.1722 20.8853C20.1722 20.8853 20.1722 20.8853 20.1722 20.8853C21.0947 19.9628 22.4714 19.7277 23.5209 20.3134L24.6838 20.9624C26.2686 21.8468 26.4557 24.0692 25.0628 25.4622C24.2258 26.2992 23.2004 26.9505 22.0669 26.9934C20.1588 27.0658 16.9183 26.5829 13.6677 23.3323C10.4171 20.0817 9.93421 16.8412 10.0066 14.9331C10.0495 13.7996 10.7008 12.7742 11.5378 11.9372C12.9308 10.5443 15.1532 10.7314 16.0376 12.3162Z" fill="white"></path> <defs> <linearGradient id="paint0_linear_875_8232" x1="0" y1="18.5" x2="37" y2="18.5" gradientUnits="userSpaceOnUse"> <stop stop-color="#00EAFF"></stop> <stop offset="1" stop-color="#00BEF8"></stop> </linearGradient> </defs> </svg> 