<?xml version="1.0" encoding="UTF-8"?> <svg xmlns="http://www.w3.org/2000/svg" width="37" height="37" viewBox="0 0 37 37" fill="none"> <rect width="37" height="37" fill="#D9D9D9"></rect> <rect width="37" height="37" fill="url(#paint0_linear_876_8233)"></rect> <path fill-rule="evenodd" clip-rule="evenodd" d="M19.6319 28.279L20.1966 27.325C20.6346 26.585 20.8536 26.215 21.2054 26.0104C21.5571 25.8058 22 25.7982 22.8858 25.7829C24.1935 25.7604 25.0136 25.6803 25.7015 25.3954C26.9776 24.8668 27.9916 23.8528 28.5202 22.5766C28.9166 21.6195 28.9166 20.4061 28.9166 17.9793V16.9377C28.9166 13.5278 28.9166 11.8229 28.1491 10.5705C27.7197 9.86967 27.1305 9.28045 26.4297 8.851C25.1772 8.0835 23.4723 8.0835 20.0625 8.0835H16.9375C13.5277 8.0835 11.8227 8.0835 10.5703 8.851C9.86949 9.28045 9.28027 9.86967 8.85081 10.5705C8.08331 11.8229 8.08331 13.5278 8.08331 16.9377V17.9793C8.08331 20.4061 8.08331 21.6195 8.47977 22.5766C9.00839 23.8528 10.0223 24.8668 11.2985 25.3954C11.9863 25.6803 12.8065 25.7604 14.1141 25.7829C14.9999 25.7982 15.4428 25.8058 15.7946 26.0104C16.1463 26.215 16.3653 26.585 16.8033 27.325L17.368 28.279C17.8713 29.1293 19.1286 29.1293 19.6319 28.279ZM18.5 12.5106C18.9315 12.5106 19.2812 12.8604 19.2812 13.2918V21.6252C19.2812 22.0566 18.9315 22.4064 18.5 22.4064C18.0685 22.4064 17.7187 22.0566 17.7187 21.6252V13.2918C17.7187 12.8604 18.0685 12.5106 18.5 12.5106ZM15.1146 15.3752C15.1146 14.9437 14.7648 14.5939 14.3333 14.5939C13.9018 14.5939 13.5521 14.9437 13.5521 15.3752V19.5418C13.5521 19.9733 13.9018 20.3231 14.3333 20.3231C14.7648 20.3231 15.1146 19.9733 15.1146 19.5418V15.3752ZM22.6666 14.5939C23.0981 14.5939 23.4479 14.9437 23.4479 15.3752V19.5418C23.4479 19.9733 23.0981 20.3231 22.6666 20.3231C22.2352 20.3231 21.8854 19.9733 21.8854 19.5418V15.3752C21.8854 14.9437 22.2352 14.5939 22.6666 14.5939Z" fill="white"></path> <defs> <linearGradient id="paint0_linear_876_8233" x1="0" y1="18.5" x2="37" y2="18.5" gradientUnits="userSpaceOnUse"> <stop stop-color="#00EAFF"></stop> <stop offset="1" stop-color="#00BEF8"></stop> </linearGradient> </defs> </svg> 