<svg width="14" height="15" viewBox="0 0 14 15" fill="none" xmlns="http://www.w3.org/2000/svg">
<path fill-rule="evenodd" clip-rule="evenodd" d="M4.11327 0.833008H9.89327C12.1533 0.833008 13.6666 2.41901 13.6666 4.77901V10.2257C13.6666 12.5797 12.1533 14.1663 9.89327 14.1663H4.11327C1.85327 14.1663 0.333267 12.5797 0.333267 10.2257V4.77901C0.333267 2.41901 1.85327 0.833008 4.11327 0.833008ZM9.3866 10.0397C9.55327 10.0397 9.71993 9.95301 9.81327 9.79301C9.95993 9.55901 9.87993 9.25234 9.63993 9.10634L7.2666 7.69301V4.61234C7.2666 4.33967 7.0466 4.11234 6.7666 4.11234C6.49327 4.11234 6.2666 4.33967 6.2666 4.61234V7.97967C6.2666 8.15301 6.35993 8.31967 6.51327 8.40634L9.1266 9.96634C9.2066 10.0197 9.29993 10.0397 9.3866 10.0397Z" fill="#C39EFF"/>
</svg>
