<svg width="12" height="15" viewBox="0 0 12 15" fill="none" xmlns="http://www.w3.org/2000/svg">
<path fill-rule="evenodd" clip-rule="evenodd" d="M0.333334 6.37818C0.333334 3.3116 2.89592 0.833008 5.99563 0.833008C9.10408 0.833008 11.6667 3.3116 11.6667 6.37818C11.6667 7.92347 11.1047 9.35809 10.1797 10.5741C9.1592 11.9154 7.90144 13.084 6.4857 14.0013C6.16167 14.2133 5.86925 14.2293 5.51363 14.0013C4.08982 13.084 2.83206 11.9154 1.82033 10.5741C0.894656 9.35809 0.333334 7.92347 0.333334 6.37818ZM4.12949 6.55084C4.12949 7.57815 4.96777 8.38612 5.99563 8.38612C7.02416 8.38612 7.87051 7.57815 7.87051 6.55084C7.87051 5.53154 7.02416 4.68423 5.99563 4.68423C4.96777 4.68423 4.12949 5.53154 4.12949 6.55084Z" fill="#C39EFF"/>
</svg>
