<svg width="17" height="16" viewBox="0 0 17 16" fill="none" xmlns="http://www.w3.org/2000/svg">
<path d="M10.0272 3.65951C9.71557 3.60089 9.42933 3.80342 9.36999 4.1132C9.31066 4.42299 9.51018 4.72545 9.81337 4.78607C10.7262 4.96728 11.431 5.68679 11.6097 6.61948V6.62015C11.6606 6.88863 11.8927 7.08383 12.16 7.08383C12.1959 7.08383 12.2317 7.0805 12.2682 7.07384C12.5714 7.01188 12.771 6.71009 12.7116 6.39963C12.4449 5.00659 11.3919 3.93066 10.0272 3.65951" fill="#C39EFF"/>
<path d="M9.98648 1.33829C9.84043 1.31698 9.69372 1.36095 9.57701 1.45555C9.45704 1.55148 9.38205 1.69005 9.36575 1.84528C9.3312 2.15906 9.55354 2.44287 9.86129 2.47818C11.9836 2.71935 13.6333 4.40286 13.8719 6.5707C13.9039 6.86117 14.1431 7.08035 14.4287 7.08035C14.4502 7.08035 14.4711 7.07902 14.4926 7.07635C14.6419 7.0597 14.775 6.98442 14.8688 6.8645C14.9621 6.74458 15.0045 6.59535 14.9875 6.44279C14.6902 3.73798 12.6344 1.63875 9.98648 1.33829" fill="#C39EFF"/>
<path fill-rule="evenodd" clip-rule="evenodd" d="M7.81002 8.64826C10.4217 11.3069 11.0142 8.23115 12.6771 9.92321C14.2802 11.5552 15.2016 11.8821 13.1704 13.9498C12.916 14.158 11.2995 16.6628 5.61862 10.8798C-0.0629938 5.096 2.39548 3.4483 2.6 3.1893C4.63608 1.1159 4.95164 2.05959 6.55478 3.69155C8.21766 5.38433 5.19833 5.98961 7.81002 8.64826Z" fill="#C39EFF"/>
</svg>
