<svg width="36" height="34" viewBox="0 0 36 34" fill="none" xmlns="http://www.w3.org/2000/svg">
<path fill-rule="evenodd" clip-rule="evenodd" d="M24.737 0.376256C25.8413 0.376256 26.9438 0.532006 27.992 0.883756C34.4513 2.98376 36.7788 10.0713 34.8345 16.2663C33.732 19.432 31.9295 22.3213 29.5688 24.682C26.1895 27.9545 22.4813 30.8595 18.4895 33.362L18.052 33.6263L17.597 33.3445C13.5913 30.8595 9.86204 27.9545 6.45129 24.6645C4.10629 22.3038 2.30204 19.432 1.18204 16.2663C-0.795459 10.0713 1.53204 2.98376 8.06129 0.847006C8.56879 0.672006 9.09204 0.549506 9.61704 0.481256H9.82704C10.3188 0.409506 10.807 0.376256 11.297 0.376256H11.4895C12.592 0.409506 13.6595 0.602006 14.6938 0.953756H14.797C14.867 0.987006 14.9195 1.02376 14.9545 1.05701C15.3413 1.18126 15.707 1.32126 16.057 1.51376L16.722 1.81126C16.8827 1.89696 17.0631 2.02791 17.219 2.14108C17.3177 2.21279 17.4067 2.27735 17.4745 2.31876C17.5031 2.3356 17.5321 2.35254 17.5614 2.36962C17.7114 2.45722 17.8677 2.54846 17.9995 2.64951C19.9438 1.16376 22.3045 0.358756 24.737 0.376256ZM29.392 12.9763C30.1095 12.957 30.722 12.3813 30.7745 11.6445V11.4363C30.827 8.98451 29.3413 6.76376 27.082 5.90626C26.3645 5.65951 25.577 6.04626 25.3145 6.78126C25.0695 7.51626 25.4545 8.32126 26.1895 8.58201C27.3113 9.00201 28.062 10.1063 28.062 11.3295V11.3838C28.0288 11.7845 28.1495 12.1713 28.3945 12.4688C28.6395 12.7663 29.007 12.9395 29.392 12.9763Z" fill="white"/>
</svg>
