<svg width="17" height="16" viewBox="0 0 17 16" fill="none" xmlns="http://www.w3.org/2000/svg">
<path d="M10.0272 3.65976C9.71558 3.60113 9.42934 3.80366 9.37001 4.11345C9.31067 4.42323 9.51019 4.72569 9.81338 4.78632C10.7262 4.96753 11.4311 5.68703 11.6097 6.61973V6.62039C11.6606 6.88887 11.8927 7.08407 12.16 7.08407C12.1959 7.08407 12.2317 7.08074 12.2683 7.07408C12.5714 7.01212 12.771 6.71033 12.7116 6.39988C12.445 5.00683 11.3919 3.93091 10.0272 3.65976" fill="#C39EFF"/>
<path d="M9.98648 1.33854C9.84043 1.31722 9.69372 1.36119 9.57701 1.45579C9.45704 1.55173 9.38205 1.6903 9.36575 1.84552C9.3312 2.15931 9.55354 2.44311 9.86129 2.47842C11.9836 2.71959 13.6333 4.4031 13.8719 6.57095C13.9039 6.86141 14.1431 7.0806 14.4287 7.0806C14.4502 7.0806 14.4711 7.07926 14.4926 7.0766C14.6419 7.05994 14.775 6.98466 14.8688 6.86474C14.9621 6.74483 15.0045 6.59559 14.9875 6.44303C14.6902 3.73822 12.6344 1.639 9.98648 1.33854" fill="#C39EFF"/>
<path fill-rule="evenodd" clip-rule="evenodd" d="M7.81002 8.64826C10.4217 11.3069 11.0142 8.23115 12.6771 9.92321C14.2802 11.5552 15.2016 11.8821 13.1704 13.9498C12.916 14.158 11.2995 16.6628 5.61862 10.8798C-0.06299 5.096 2.39548 3.4483 2.6 3.1893C4.63608 1.1159 4.95165 2.05959 6.55478 3.69155C8.21766 5.38433 5.19834 5.98961 7.81002 8.64826Z" fill="#C39EFF"/>
</svg>
