<svg width="65" height="64" viewBox="0 0 65 64" fill="none" xmlns="http://www.w3.org/2000/svg">
<g clip-path="url(#clip0_674_3749)">
<path opacity="0.3" d="M27.6318 64C12.6473 59.9849 3.90284 44.0306 8.10042 28.365C12.298 12.6995 27.8481 3.25486 42.8326 7.26994C31.508 49.5338 37.4363 27.4091 27.6318 64Z" fill="#FDDB2C"/>
<path d="M34.4434 46.8544V41.6491C34.4434 40.3203 35.5284 39.2431 36.8669 39.2431H41.7598C42.4026 39.2431 43.019 39.4966 43.4735 39.9478C43.928 40.399 44.1834 41.011 44.1834 41.6491V46.8544C44.1793 47.4068 44.3975 47.938 44.7896 48.3301C45.1817 48.7221 45.7151 48.9426 46.2716 48.9426H49.6097C51.1688 48.9466 52.6653 48.3346 53.7692 47.2416C54.873 46.1487 55.4934 44.6646 55.4934 43.1169V28.2877C55.4933 27.0375 54.9351 25.8516 53.9691 25.0495L42.6134 16.0461C40.638 14.4675 37.8078 14.5184 35.8914 16.1671L24.7948 25.0495C23.7832 25.828 23.1785 27.0174 23.1486 28.2877V43.1017C23.1486 46.3276 25.7828 48.9426 29.0323 48.9426H32.2942C33.45 48.9426 34.3893 48.0169 34.3976 46.8696L34.4434 46.8544Z" fill="#07003B"/>
<circle cx="54.0038" cy="34.4726" r="7.6606" fill="#FDDB2C"/>
<path d="M58.8173 32.4059L53.3475 38.0083C53.1517 38.2088 52.8984 38.3032 52.6335 38.3032C52.3802 38.3032 52.1268 38.2088 51.9311 38.0083L49.1904 35.213C48.7989 34.8002 48.7989 34.1515 49.1904 33.7505C49.5819 33.3494 50.2268 33.3494 50.6183 33.7505L52.6335 35.8145L57.3893 30.9433C57.7809 30.5423 58.4257 30.5423 58.8173 30.9433C59.2088 31.3562 59.2088 32.0049 58.8173 32.4059Z" fill="#07003B"/>
</g>
<defs>
<clipPath id="clip0_674_3749">
<rect width="64" height="64" fill="white" transform="translate(0.5)"/>
</clipPath>
</defs>
</svg>
