<svg width="180" height="48" viewBox="0 0 180 48" fill="none" xmlns="http://www.w3.org/2000/svg">
<g clip-path="url(#clip0_496_484)">
<path d="M70.2619 23.3799C70.7072 23.6675 71.0571 24.051 71.3116 24.4665C71.5978 24.9139 71.7251 25.4891 71.7251 26.1602C71.7251 27.5344 71.1207 28.6529 69.9438 29.5157C68.767 30.3786 67.2402 30.826 65.3318 30.826C64.473 30.826 63.7096 30.7301 63.0735 30.5064C62.4374 30.3147 61.8648 30.0271 61.4513 29.7075C61.006 29.3879 60.6561 29.0044 60.4335 28.589C60.2108 28.1735 60.0836 27.7261 60.0836 27.2787C60.0836 26.8952 60.179 26.5437 60.4017 26.2561C60.6243 25.9685 60.9106 25.8087 61.2923 25.8087C61.7376 25.8087 62.0875 25.9365 62.3101 26.1283C62.5328 26.352 62.6282 26.6076 62.6282 26.9592C62.6282 27.1829 62.5646 27.5024 62.4692 27.8859C62.3737 28.2694 62.3101 28.5251 62.2465 28.6848C62.3101 28.7807 62.4055 28.8766 62.5646 29.0364C62.7236 29.1962 62.9463 29.324 63.1689 29.4518C63.4234 29.5797 63.7096 29.7075 64.0595 29.8034C64.4094 29.8992 64.8229 29.9631 65.2682 29.9631C65.7771 29.9631 66.2542 29.8992 66.7313 29.7394C67.2084 29.6116 67.6219 29.3879 67.94 29.1003C68.2899 28.7807 68.5761 28.3972 68.767 27.9498C68.9578 27.5024 69.0851 26.9272 69.0851 26.2561C69.0851 25.9046 69.0532 25.5211 68.9578 25.1695C68.8624 24.786 68.7034 24.4665 68.4807 24.2108C68.2263 23.9232 67.9082 23.6995 67.4947 23.5078C67.0812 23.348 66.5405 23.2521 65.9043 23.2521H64.4094V22.1336H65.5226C66.6041 22.1336 67.3675 21.846 67.8446 21.3027C68.3217 20.7594 68.5443 19.9285 68.5443 18.8739C68.5443 18.4904 68.5125 18.1709 68.4171 17.8513C68.3217 17.5317 68.1945 17.2761 68.0036 17.0524C67.8128 16.8287 67.5265 16.6369 67.2084 16.4771C66.8904 16.3493 66.4769 16.2534 66.0316 16.2534C65.3636 16.2534 64.8229 16.3813 64.3458 16.6369C63.8687 16.8926 63.487 17.2761 63.1371 17.7235C62.819 18.1709 62.5646 18.6502 62.3737 19.2574C62.1829 19.8327 62.0239 20.4079 61.8966 20.9512H61.0696L61.1651 15.6782H61.992L62.4374 16.3813C62.8827 16.0936 63.4234 15.8699 64.1231 15.6462C64.8229 15.4225 65.5226 15.3267 66.286 15.3267C67.0812 15.3267 67.8128 15.4225 68.5125 15.6143C69.2123 15.806 69.7848 16.1576 70.2619 16.6369C70.6118 17.0204 70.8345 17.3719 70.9617 17.7874C71.0889 18.1709 71.1525 18.4904 71.1525 18.7781C71.1525 19.0976 71.0889 19.4172 70.9935 19.8007C70.8981 20.1842 70.6754 20.5038 70.3891 20.8553C70.1029 21.1749 69.753 21.4944 69.2759 21.7501C68.8306 22.0377 68.2581 22.2614 67.5901 22.4212V22.549C68.0036 22.549 68.4489 22.6449 68.9578 22.7727C69.4031 22.9006 69.8484 23.0923 70.2619 23.3799Z" fill="#395E7C"/>
<path d="M72.5838 33.8621C72.5838 33.5105 72.6793 33.2229 72.8701 32.9992C73.061 32.7755 73.2836 32.6796 73.5699 32.6796C73.7925 32.6796 73.9834 32.7116 74.1424 32.8075C74.3014 32.9033 74.4287 32.9992 74.5559 33.127C74.6513 33.2229 74.7785 33.3827 74.874 33.5425C75.0012 33.7342 75.0966 33.8621 75.1602 33.9899C75.5101 33.7981 75.9236 33.3188 76.4007 32.5199C76.8778 31.7209 77.2277 31.0179 77.4503 30.4426C76.7824 28.7808 76.2099 27.3108 75.6691 26.0005C75.1284 24.6903 74.5877 23.3481 73.9834 21.942C73.8561 21.6224 73.6335 21.3667 73.3154 21.2069C72.9973 21.0152 72.6793 20.9193 72.393 20.8554V20.1523H77.0687V20.8874C76.846 20.8874 76.6234 20.9513 76.3053 21.0152C76.019 21.0791 75.86 21.175 75.86 21.3028C75.86 21.3348 75.86 21.3987 75.8918 21.5265C75.9236 21.6543 75.9554 21.7183 75.9872 21.8141C76.2417 22.5172 76.6552 23.5079 77.1959 24.7862C77.7366 26.0964 78.1501 27.1191 78.4364 27.918C78.7544 27.183 79.0725 26.416 79.4224 25.6171C79.7723 24.8181 80.1222 23.8914 80.5675 22.8048C80.6311 22.677 80.6947 22.4852 80.7901 22.2615C80.8855 22.0378 80.9173 21.8141 80.9173 21.6543C80.9173 21.4626 80.7583 21.3028 80.4402 21.143C80.1221 20.9832 79.8359 20.8874 79.5496 20.8554V20.1843H83.3665V20.8234C83.1438 20.8554 82.8894 20.9832 82.5395 21.175C82.1896 21.3667 81.9352 21.6863 81.7761 22.0378C80.9491 23.9553 80.2176 25.7129 79.5814 27.2788C78.9453 28.8448 78.4364 30.0272 78.1183 30.7622C77.673 31.7529 77.2913 32.4879 76.9414 33.0312C76.5916 33.5744 76.2735 34.0218 75.9236 34.3095C75.6055 34.5971 75.3193 34.7888 75.0648 34.8847C74.8103 34.9806 74.5241 35.0445 74.2696 35.0445C73.7289 35.0445 73.3154 34.9167 72.9973 34.661C72.7429 34.4693 72.5838 34.1816 72.5838 33.8621Z" fill="#395E7C"/>
<path d="M84.9569 22.8367L85.0523 22.8686C85.3704 22.0377 85.9111 21.3347 86.579 20.7914C87.2788 20.2481 88.074 19.9605 88.9964 19.9605C89.7597 19.9605 90.4595 20.0883 91.0957 20.344C91.7 20.5996 92.2407 20.9831 92.6542 21.4305C93.0677 21.8779 93.3858 22.4532 93.5766 23.0923C93.7993 23.7315 93.8947 24.4345 93.8947 25.2015C93.8947 25.9365 93.7675 26.6715 93.5448 27.3426C93.3222 28.0138 92.9723 28.6209 92.5588 29.1323C92.1135 29.6436 91.5728 30.059 90.9366 30.3466C90.3323 30.6343 89.6007 30.794 88.7419 30.794C88.1058 30.794 87.5014 30.6662 86.8971 30.4106C86.2928 30.1549 85.7839 29.7714 85.3386 29.2281C84.8932 28.6849 84.5434 28.0138 84.2571 27.1829C84.0027 26.352 83.8754 25.3613 83.8754 24.2108C83.8754 23.1243 83.939 22.1336 84.0981 21.3027C84.2571 20.4718 84.448 19.6729 84.6706 18.9698C84.9887 17.9791 85.4658 17.1802 86.1655 16.573C86.8335 15.9658 87.6923 15.6143 88.6783 15.5823C89.1554 15.5504 89.6961 15.5184 90.2369 15.4865C90.7776 15.4545 91.2229 15.4225 91.541 15.3906C91.8272 15.3586 92.1135 15.2947 92.3998 15.1349C92.686 15.0071 92.9405 14.7514 93.2267 14.3999L93.8311 14.8153C93.672 15.0391 93.4812 15.2947 93.2267 15.6462C92.9723 15.9658 92.7496 16.2534 92.5588 16.4452C92.3998 16.605 92.2725 16.7647 92.1453 16.8606C92.0181 16.9565 91.9226 17.0524 91.8272 17.1163C91.7 17.1802 91.5728 17.2122 91.4137 17.2441C91.2547 17.2761 91.032 17.308 90.7776 17.308C90.4913 17.308 90.1096 17.34 89.6961 17.3719C89.2826 17.4039 88.901 17.4359 88.5829 17.4359C88.1058 17.4678 87.6923 17.5637 87.3424 17.7554C86.9925 17.9472 86.7063 18.2028 86.4518 18.4585C86.1973 18.7461 86.0065 19.0337 85.8475 19.3853C85.6884 19.7368 85.5612 20.0244 85.4976 20.2801C85.3704 20.7275 85.2431 21.1429 85.1795 21.5584C85.0523 22.0377 84.9887 22.4212 84.9569 22.8367ZM91.032 28.589C91.2865 28.1096 91.4455 27.5983 91.5728 27.087C91.7 26.5437 91.7318 25.9365 91.7318 25.2335C91.7318 24.6902 91.7 24.1149 91.6046 23.6036C91.5091 23.0604 91.3501 22.581 91.1593 22.1655C90.9366 21.7181 90.6504 21.3986 90.3005 21.1429C89.9506 20.8873 89.5053 20.7594 88.9646 20.7594C88.392 20.7594 87.9467 20.8873 87.5651 21.1749C87.1834 21.4625 86.8971 21.814 86.6426 22.2295C86.42 22.6449 86.261 23.1243 86.1655 23.6675C86.0701 24.2108 86.0065 24.7221 86.0065 25.2335C86.0065 26.0324 86.0701 26.7355 86.1655 27.2787C86.2928 27.822 86.4518 28.3014 86.6745 28.6849C86.8971 29.1003 87.1834 29.4199 87.5651 29.6436C87.9149 29.8673 88.3602 29.9632 88.901 29.9632C89.3781 29.9632 89.7916 29.8353 90.1732 29.5797C90.5231 29.356 90.8094 29.0364 91.032 28.589Z" fill="#395E7C"/>
<path d="M106.236 30.4745H102.705C102.514 29.8993 102.387 29.4199 102.228 29.0045C102.101 28.589 101.878 28.1416 101.624 27.5984C101.306 26.9592 100.924 26.4799 100.542 26.1922C100.161 25.9046 99.6518 25.7448 99.0474 25.7448H98.8248V28.621C98.8248 28.8447 98.8884 29.0684 98.9838 29.1962C99.0792 29.356 99.2383 29.4519 99.4291 29.5478C99.5882 29.6117 99.7472 29.6756 99.9062 29.7076C100.065 29.7395 100.256 29.7715 100.447 29.7715V30.4745H95.4532V29.7715C95.6123 29.7715 95.7713 29.7395 95.9621 29.7395C96.1212 29.7395 96.2802 29.7076 96.4074 29.6436C96.5983 29.5797 96.7573 29.4839 96.8527 29.3241C96.9482 29.1643 96.98 28.9725 96.98 28.7169V22.0378C96.98 21.8141 96.9163 21.6223 96.8209 21.4625C96.7255 21.3028 96.5665 21.1749 96.3756 21.111C96.1848 21.0151 96.0257 20.9832 95.8349 20.9512C95.6759 20.9193 95.5168 20.8873 95.3578 20.8873V20.1843H100.352V20.8873C100.161 20.8873 99.9698 20.9193 99.8108 20.9512C99.6518 20.9832 99.5245 20.9832 99.3973 21.0151C99.2065 21.0791 99.0474 21.1749 98.952 21.3347C98.8566 21.4945 98.8248 21.7182 98.8248 21.9419V24.9779H99.4927C99.7154 24.9779 99.938 24.9459 100.192 24.85C100.415 24.7542 100.606 24.6263 100.765 24.4665C100.956 24.2428 101.147 23.9872 101.274 23.6356C101.433 23.2841 101.56 22.9645 101.656 22.6769C101.751 22.3574 101.878 22.0378 102.037 21.7182C102.165 21.3986 102.324 21.111 102.483 20.9512C102.737 20.6317 103.023 20.408 103.31 20.2801C103.596 20.1523 103.914 20.0884 104.296 20.0884C104.836 20.0884 105.218 20.2162 105.472 20.4399C105.727 20.6636 105.854 20.9512 105.854 21.3028C105.854 21.5904 105.759 21.846 105.568 22.0697C105.377 22.2934 105.123 22.3893 104.773 22.3893C104.455 22.3893 104.232 22.3254 104.041 22.1337C103.85 21.9739 103.628 21.7182 103.31 21.3347C103.182 21.4625 103.055 21.6862 102.928 22.0697C102.801 22.4532 102.705 22.7728 102.578 23.0604C102.355 23.6356 102.165 24.0511 101.942 24.3707C101.719 24.6902 101.465 24.9139 101.179 25.1057V25.2335C101.815 25.3613 102.324 25.5851 102.673 25.9366C103.055 26.2562 103.373 26.7036 103.628 27.2149C103.755 27.4705 103.882 27.7582 104.041 28.1097C104.2 28.4612 104.296 28.6849 104.359 28.8127C104.486 29.1323 104.677 29.3241 104.868 29.4519C105.059 29.5797 105.25 29.6436 105.409 29.6756C105.568 29.7076 105.727 29.7395 105.886 29.7715C106.045 29.8034 106.204 29.8034 106.331 29.8354V30.4745H106.236Z" fill="#395E7C"/>
<path d="M118.672 30.4744H113.679V29.7713C113.838 29.7713 113.997 29.7393 114.188 29.7393C114.347 29.7393 114.506 29.7074 114.633 29.6435C114.824 29.5796 114.983 29.4837 115.078 29.3239C115.174 29.1641 115.237 28.9724 115.237 28.7167V23.3159L110.53 28.461V28.6528C110.53 28.8765 110.593 29.1002 110.689 29.228C110.784 29.3878 110.943 29.5156 111.134 29.5796C111.293 29.6435 111.452 29.7074 111.611 29.7393C111.77 29.7713 111.961 29.8033 112.152 29.8033V30.5063H107.158V29.8033C107.317 29.8033 107.476 29.7713 107.667 29.7713C107.826 29.7713 107.985 29.7393 108.112 29.6754C108.303 29.6115 108.462 29.5156 108.558 29.3559C108.653 29.1961 108.685 29.0043 108.685 28.7487V22.0376C108.685 21.8139 108.621 21.6222 108.526 21.4624C108.431 21.3026 108.272 21.1748 108.081 21.1108C107.89 21.015 107.731 20.983 107.54 20.9511C107.381 20.9191 107.222 20.8871 107.063 20.8871V20.1841H112.057V20.8871C111.866 20.8871 111.675 20.9191 111.516 20.9511C111.357 20.983 111.23 20.983 111.102 21.015C110.911 21.0789 110.752 21.1748 110.657 21.3345C110.562 21.4943 110.53 21.718 110.53 21.9417V27.2786L115.237 22.1335C115.237 21.8139 115.174 21.5902 115.078 21.4624C114.983 21.3026 114.824 21.2067 114.633 21.1108C114.442 21.015 114.283 20.983 114.092 20.9511C113.901 20.9191 113.742 20.8871 113.615 20.8871V20.1841H118.641V20.8871C118.45 20.8871 118.259 20.9191 118.1 20.9511C117.941 20.983 117.814 20.983 117.686 21.015C117.496 21.0789 117.337 21.1748 117.241 21.3345C117.146 21.4943 117.114 21.718 117.114 21.9417V28.6208C117.114 28.8765 117.146 29.0682 117.241 29.1961C117.337 29.3559 117.464 29.4517 117.655 29.5476C117.814 29.6115 117.973 29.6754 118.132 29.7074C118.291 29.7393 118.482 29.7713 118.672 29.7713V30.4744Z" fill="#395E7C"/>
<path d="M134.672 23.7633C135.117 24.051 135.467 24.4345 135.753 24.9138C136.039 25.3932 136.167 25.9684 136.167 26.6395C136.167 27.3426 136.008 27.9178 135.721 28.4291C135.435 28.9404 135.022 29.3559 134.545 29.6755C134.067 29.995 133.558 30.2507 132.954 30.4105C132.35 30.5703 131.777 30.6661 131.141 30.6661H124.144V29.9311C124.303 29.9311 124.557 29.8992 124.875 29.8353C125.193 29.8033 125.416 29.7394 125.575 29.6755C125.798 29.5796 125.957 29.4518 126.02 29.292C126.116 29.1322 126.147 28.9085 126.147 28.6528V18.011C126.147 17.7873 126.116 17.5636 126.02 17.3719C125.925 17.1801 125.798 17.0523 125.543 16.9245C125.32 16.8286 125.098 16.7327 124.843 16.6688C124.589 16.6049 124.366 16.5729 124.207 16.5729V15.8699H131.014C131.555 15.8699 132.032 15.9338 132.541 16.0297C133.05 16.1255 133.495 16.3173 133.908 16.5729C134.322 16.8286 134.64 17.1482 134.926 17.5636C135.181 17.9791 135.308 18.4904 135.308 19.0976C135.308 19.6089 135.212 20.0882 135.022 20.5037C134.831 20.9191 134.576 21.2707 134.226 21.5583C133.908 21.8459 133.527 22.0696 133.145 22.2614C132.732 22.4531 132.286 22.6129 131.809 22.7088V22.8046C132.223 22.8685 132.7 22.9644 133.24 23.1242C133.813 23.252 134.258 23.4757 134.672 23.7633ZM132.159 21.5263C132.413 21.2387 132.604 20.8872 132.7 20.5357C132.795 20.1841 132.859 19.7687 132.859 19.2574C132.859 18.4265 132.636 17.7873 132.191 17.3399C131.745 16.8606 131.046 16.6369 130.092 16.6369C129.869 16.6369 129.583 16.6369 129.265 16.6688C128.915 16.6688 128.66 16.7008 128.406 16.7008V22.4211H129.71C130.282 22.4211 130.759 22.3572 131.173 22.1974C131.586 22.0376 131.905 21.8459 132.159 21.5263ZM133.622 26.288C133.622 25.4251 133.336 24.6901 132.731 24.1149C132.159 23.5396 131.3 23.284 130.219 23.284C129.773 23.284 129.392 23.284 129.105 23.3159C128.787 23.3159 128.565 23.3479 128.406 23.3479V28.557C128.406 29.0044 128.597 29.3239 128.946 29.5476C129.296 29.7713 129.805 29.8672 130.41 29.8672C131.427 29.8672 132.223 29.5796 132.795 28.9724C133.336 28.3333 133.622 27.4384 133.622 26.288Z" fill="#395E7C"/>
<path d="M142.624 30.9539C141.129 30.9539 139.984 30.4745 139.125 29.4839C138.298 28.4932 137.852 27.1829 137.852 25.4892C137.852 24.7542 137.98 24.0831 138.202 23.4439C138.425 22.8048 138.743 22.2295 139.188 21.7182C139.602 21.2388 140.111 20.8234 140.715 20.5358C141.319 20.2482 142.019 20.0884 142.719 20.0884C143.737 20.0884 144.532 20.344 145.168 20.8234C145.804 21.3028 146.122 21.9739 146.122 22.8048C146.122 23.1563 146.027 23.4759 145.868 23.7315C145.709 23.9872 145.423 24.147 145.041 24.147C144.627 24.147 144.309 24.0511 144.087 23.8274C143.864 23.6037 143.737 23.38 143.737 23.1243C143.737 22.8048 143.769 22.4852 143.864 22.1656C143.959 21.846 143.991 21.5904 144.023 21.4306C143.896 21.2069 143.705 21.0791 143.482 20.9832C143.228 20.9193 142.973 20.8873 142.687 20.8873C142.369 20.8873 142.051 20.9512 141.733 21.111C141.447 21.2388 141.129 21.5265 140.842 21.91C140.588 22.2615 140.365 22.7408 140.206 23.3161C140.047 23.8913 139.984 24.6263 139.984 25.4253C139.984 26.7355 140.27 27.7901 140.842 28.589C141.415 29.4199 142.178 29.8034 143.101 29.8034C143.769 29.8034 144.341 29.6436 144.786 29.3241C145.232 29.0045 145.677 28.4932 146.059 27.854L146.727 28.3014C146.281 29.1323 145.677 29.7715 144.914 30.2508C144.182 30.7302 143.419 30.9539 142.624 30.9539Z" fill="#395E7C"/>
<path d="M156.65 28.2693C156.205 29.1001 155.633 29.7393 154.933 30.2187C154.201 30.698 153.374 30.9537 152.452 30.9537C151.625 30.9537 150.893 30.7939 150.289 30.5063C149.685 30.2187 149.144 29.8032 148.762 29.3238C148.349 28.8125 148.063 28.2373 147.872 27.5662C147.681 26.8951 147.585 26.192 147.585 25.457C147.585 24.7859 147.681 24.1467 147.904 23.4756C148.126 22.8365 148.412 22.2613 148.826 21.7499C149.208 21.2706 149.717 20.8551 150.289 20.5675C150.862 20.2799 151.53 20.1201 152.261 20.1201C153.024 20.1201 153.661 20.2479 154.17 20.4716C154.71 20.6954 155.124 21.0469 155.474 21.4304C155.792 21.8139 156.014 22.2932 156.173 22.8045C156.332 23.3478 156.396 23.923 156.396 24.5302V25.2333H149.589C149.589 25.9044 149.653 26.5116 149.78 27.0868C149.907 27.6301 150.098 28.1095 150.384 28.5569C150.671 28.9723 151.021 29.2919 151.434 29.5156C151.879 29.7393 152.388 29.8671 152.993 29.8671C153.597 29.8671 154.138 29.7073 154.583 29.4197C155.028 29.1321 155.474 28.6208 155.887 27.8538L156.65 28.2693ZM154.36 24.3385C154.36 23.955 154.329 23.5396 154.265 23.0922C154.201 22.6448 154.106 22.2613 153.947 21.9736C153.788 21.6541 153.565 21.3984 153.279 21.2067C152.993 21.0149 152.643 20.9191 152.197 20.9191C151.466 20.9191 150.862 21.2067 150.384 21.8458C149.907 22.453 149.653 23.2839 149.589 24.3705L154.36 24.3385Z" fill="#395E7C"/>
<path d="M171.6 30.6982H166.574V29.9951C166.733 29.9951 166.892 29.9632 167.083 29.9632C167.242 29.9632 167.401 29.9312 167.529 29.8673C167.719 29.8034 167.878 29.6756 168.006 29.5158C168.101 29.356 168.165 29.1642 168.165 28.9086V21.4625H167.91L164.443 30.5064H163.807L160.499 21.3027H160.277V28.5251C160.277 28.8766 160.34 29.1642 160.436 29.356C160.531 29.5477 160.69 29.7075 160.881 29.7714C161.04 29.8353 161.199 29.8993 161.358 29.9312C161.517 29.9632 161.708 29.9951 161.899 29.9951V30.6982H157.891V29.9951C158.05 29.9951 158.209 29.9632 158.4 29.9632C158.559 29.9632 158.718 29.9312 158.845 29.8673C159.068 29.8034 159.195 29.6756 159.29 29.4518C159.386 29.2601 159.418 28.9725 159.418 28.621V22.3573C159.418 22.0697 159.354 21.8779 159.259 21.6862C159.163 21.5264 159.004 21.3986 158.813 21.3027C158.623 21.2068 158.464 21.1749 158.273 21.1429C158.114 21.111 157.955 21.079 157.796 21.079V20.376H162.058L164.634 27.7581L166.892 21.6223C166.956 21.4305 167.051 21.1749 167.115 20.8873C167.21 20.5997 167.242 20.4399 167.242 20.344H171.568V21.0471C171.377 21.0471 171.186 21.079 171.027 21.111C170.868 21.1429 170.741 21.1429 170.614 21.1749C170.423 21.2388 170.264 21.3347 170.169 21.4945C170.073 21.6542 170.041 21.8779 170.041 22.1017V28.7807C170.041 29.0364 170.073 29.2281 170.169 29.356C170.264 29.4838 170.391 29.6116 170.582 29.7075C170.741 29.7714 170.9 29.8353 171.059 29.8673C171.218 29.8993 171.409 29.9312 171.6 29.9312V30.6982Z" fill="#395E7C"/>
<path d="M27.6723 47.2969C40.6716 47.2969 51.2096 36.7092 51.2096 23.6485C51.2096 10.5878 40.6716 0 27.6723 0C14.673 0 4.13495 10.5878 4.13495 23.6485C4.13495 36.7092 14.673 47.2969 27.6723 47.2969Z" fill="url(#paint0_linear_496_484)"/>
<path d="M32.7614 42.2157C31.6482 42.5353 30.5349 42.759 29.358 42.8868C22.933 43.5579 16.5716 41.0333 12.3094 36.1438L15.5537 33.2676C18.8617 37.1345 23.8554 39.0839 28.9127 38.5726C36.1966 37.8056 42.0173 31.9254 42.7489 24.6072L47.0428 25.0226C46.2477 33.2037 40.4269 39.9787 32.7614 42.2157Z" fill="white"/>
</g>
<defs>
<linearGradient id="paint0_linear_496_484" x1="4.13495" y1="23.6485" x2="51.2096" y2="23.6485" gradientUnits="userSpaceOnUse">
<stop stop-color="#00EAFF"/>
<stop offset="1" stop-color="#00BEF8"/>
</linearGradient>
<clipPath id="clip0_496_484">
<rect width="179.265" height="48" fill="white"/>
</clipPath>
</defs>
</svg>
