<svg width="16" height="16" viewBox="0 0 16 16" fill="none" xmlns="http://www.w3.org/2000/svg">
<path fill-rule="evenodd" clip-rule="evenodd" d="M0 6.93594C0 3.10533 3.07227 0 6.86211 0C8.68206 0 10.4275 0.730749 11.7144 2.03149C13.0013 3.33223 13.7242 5.09641 13.7242 6.93594C13.7242 10.7666 10.652 13.8719 6.86211 13.8719C3.07227 13.8719 0 10.7666 0 6.93594ZM13.6107 12.5235L15.6544 14.1732H15.6899C16.1034 14.5912 16.1034 15.2688 15.6899 15.6867C15.2764 16.1046 14.6061 16.1046 14.1926 15.6867L12.4966 13.7429C12.3362 13.5814 12.2461 13.362 12.2461 13.1332C12.2461 12.9044 12.3362 12.685 12.4966 12.5235C12.8058 12.2164 13.3015 12.2164 13.6107 12.5235Z" fill="#01BDF8"/>
</svg>
