<svg width="140" height="24" viewBox="0 0 140 24" fill="none" xmlns="http://www.w3.org/2000/svg">
<path d="M17.9185 14.32C17.6595 14.571 17.5405 14.934 17.5995 15.29L18.4885 20.21C18.5635 20.627 18.3875 21.049 18.0385 21.29C17.6965 21.54 17.2415 21.57 16.8685 21.37L12.4395 19.06C12.2855 18.978 12.1145 18.934 11.9395 18.929H11.6685C11.5745 18.943 11.4825 18.973 11.3985 19.019L6.96851 21.34C6.74951 21.45 6.50151 21.489 6.25851 21.45C5.66651 21.338 5.27151 20.774 5.36851 20.179L6.25851 15.259C6.31751 14.9 6.19851 14.535 5.93951 14.28L2.32851 10.78C2.02651 10.487 1.92151 10.047 2.05951 9.65C2.19351 9.254 2.53551 8.965 2.94851 8.9L7.91851 8.179C8.29651 8.14 8.62851 7.91 8.79851 7.57L10.9885 3.08C11.0405 2.98 11.1075 2.888 11.1885 2.81L11.2785 2.74C11.3255 2.688 11.3795 2.645 11.4395 2.61L11.5485 2.57L11.7185 2.5H12.1395C12.5155 2.539 12.8465 2.764 13.0195 3.1L15.2385 7.57C15.3985 7.897 15.7095 8.124 16.0685 8.179L21.0385 8.9C21.4585 8.96 21.8095 9.25 21.9485 9.65C22.0795 10.051 21.9665 10.491 21.6585 10.78L17.9185 14.32Z" fill="#FDDB2C"/>
<path d="M46.9185 14.32C46.6595 14.571 46.5405 14.934 46.5995 15.29L47.4885 20.21C47.5635 20.627 47.3875 21.049 47.0385 21.29C46.6965 21.54 46.2415 21.57 45.8685 21.37L41.4395 19.06C41.2855 18.978 41.1145 18.934 40.9395 18.929H40.6685C40.5745 18.943 40.4825 18.973 40.3985 19.019L35.9685 21.34C35.7495 21.45 35.5015 21.489 35.2585 21.45C34.6665 21.338 34.2715 20.774 34.3685 20.179L35.2585 15.259C35.3175 14.9 35.1985 14.535 34.9395 14.28L31.3285 10.78C31.0265 10.487 30.9215 10.047 31.0595 9.65C31.1935 9.254 31.5355 8.965 31.9485 8.9L36.9185 8.179C37.2965 8.14 37.6285 7.91 37.7985 7.57L39.9885 3.08C40.0405 2.98 40.1075 2.888 40.1885 2.81L40.2785 2.74C40.3255 2.688 40.3795 2.645 40.4395 2.61L40.5485 2.57L40.7185 2.5H41.1395C41.5155 2.539 41.8465 2.764 42.0195 3.1L44.2385 7.57C44.3985 7.897 44.7095 8.124 45.0685 8.179L50.0385 8.9C50.4585 8.96 50.8095 9.25 50.9485 9.65C51.0795 10.051 50.9665 10.491 50.6585 10.78L46.9185 14.32Z" fill="#FDDB2C"/>
<path d="M75.9185 14.32C75.6595 14.571 75.5405 14.934 75.5995 15.29L76.4885 20.21C76.5635 20.627 76.3875 21.049 76.0385 21.29C75.6965 21.54 75.2415 21.57 74.8685 21.37L70.4395 19.06C70.2855 18.978 70.1145 18.934 69.9395 18.929H69.6685C69.5745 18.943 69.4825 18.973 69.3985 19.019L64.9685 21.34C64.7495 21.45 64.5015 21.489 64.2585 21.45C63.6665 21.338 63.2715 20.774 63.3685 20.179L64.2585 15.259C64.3175 14.9 64.1985 14.535 63.9395 14.28L60.3285 10.78C60.0265 10.487 59.9215 10.047 60.0595 9.65C60.1935 9.254 60.5355 8.965 60.9485 8.9L65.9185 8.179C66.2965 8.14 66.6285 7.91 66.7985 7.57L68.9885 3.08C69.0405 2.98 69.1075 2.888 69.1885 2.81L69.2785 2.74C69.3255 2.688 69.3795 2.645 69.4395 2.61L69.5485 2.57L69.7185 2.5H70.1395C70.5155 2.539 70.8465 2.764 71.0195 3.1L73.2385 7.57C73.3985 7.897 73.7095 8.124 74.0685 8.179L79.0385 8.9C79.4585 8.96 79.8095 9.25 79.9485 9.65C80.0795 10.051 79.9665 10.491 79.6585 10.78L75.9185 14.32Z" fill="#FDDB2C"/>
<path d="M104.919 14.32C104.66 14.571 104.541 14.934 104.6 15.29L105.489 20.21C105.564 20.627 105.388 21.049 105.039 21.29C104.697 21.54 104.242 21.57 103.869 21.37L99.4395 19.06C99.2855 18.978 99.1145 18.934 98.9395 18.929H98.6685C98.5745 18.943 98.4825 18.973 98.3985 19.019L93.9685 21.34C93.7495 21.45 93.5015 21.489 93.2585 21.45C92.6665 21.338 92.2715 20.774 92.3685 20.179L93.2585 15.259C93.3175 14.9 93.1985 14.535 92.9395 14.28L89.3285 10.78C89.0265 10.487 88.9215 10.047 89.0595 9.65C89.1935 9.254 89.5355 8.965 89.9485 8.9L94.9185 8.179C95.2965 8.14 95.6285 7.91 95.7985 7.57L97.9885 3.08C98.0405 2.98 98.1075 2.888 98.1885 2.81L98.2785 2.74C98.3255 2.688 98.3795 2.645 98.4395 2.61L98.5485 2.57L98.7185 2.5H99.1395C99.5155 2.539 99.8465 2.764 100.02 3.1L102.239 7.57C102.399 7.897 102.71 8.124 103.069 8.179L108.039 8.9C108.459 8.96 108.81 9.25 108.949 9.65C109.08 10.051 108.967 10.491 108.659 10.78L104.919 14.32Z" fill="#FDDB2C"/>
<path d="M133.919 14.32C133.66 14.571 133.541 14.934 133.6 15.29L134.489 20.21C134.564 20.627 134.388 21.049 134.039 21.29C133.697 21.54 133.242 21.57 132.869 21.37L128.44 19.06C128.286 18.978 128.115 18.934 127.94 18.929H127.669C127.575 18.943 127.483 18.973 127.399 19.019L122.969 21.34C122.75 21.45 122.502 21.489 122.259 21.45C121.667 21.338 121.272 20.774 121.369 20.179L122.259 15.259C122.318 14.9 122.199 14.535 121.94 14.28L118.329 10.78C118.027 10.487 117.922 10.047 118.06 9.65C118.194 9.254 118.536 8.965 118.949 8.9L123.919 8.179C124.297 8.14 124.629 7.91 124.799 7.57L126.989 3.08C127.041 2.98 127.108 2.888 127.189 2.81L127.279 2.74C127.326 2.688 127.38 2.645 127.44 2.61L127.549 2.57L127.719 2.5H128.14C128.516 2.539 128.847 2.764 129.02 3.1L131.239 7.57C131.399 7.897 131.71 8.124 132.069 8.179L137.039 8.9C137.459 8.96 137.81 9.25 137.949 9.65C138.08 10.051 137.967 10.491 137.659 10.78L133.919 14.32Z" fill="#FDDB2C"/>
</svg>
