<svg width="12" height="15" viewBox="0 0 12 15" fill="none" xmlns="http://www.w3.org/2000/svg">
<path fill-rule="evenodd" clip-rule="evenodd" d="M0.333984 6.37818C0.333984 3.3116 2.89657 0.833008 5.99628 0.833008C9.10473 0.833008 11.6673 3.3116 11.6673 6.37818C11.6673 7.92347 11.1053 9.35809 10.1803 10.5741C9.15985 11.9154 7.90209 13.084 6.48635 14.0013C6.16233 14.2133 5.8699 14.2293 5.51428 14.0013C4.09047 13.084 2.83271 11.9154 1.82098 10.5741C0.895307 9.35809 0.333984 7.92347 0.333984 6.37818ZM4.13014 6.55084C4.13014 7.57815 4.96842 8.38612 5.99628 8.38612C7.02481 8.38612 7.87116 7.57815 7.87116 6.55084C7.87116 5.53154 7.02481 4.68423 5.99628 4.68423C4.96842 4.68423 4.13014 5.53154 4.13014 6.55084Z" fill="#FDDB2C"/>
</svg>
