<svg width="17" height="16" viewBox="0 0 17 16" fill="none" xmlns="http://www.w3.org/2000/svg">
<path d="M10.0271 3.65951C9.7154 3.60089 9.42916 3.80342 9.36982 4.1132C9.31049 4.42299 9.51001 4.72545 9.8132 4.78607C10.726 4.96728 11.4309 5.68679 11.6095 6.61948V6.62015C11.6604 6.88863 11.8925 7.08383 12.1598 7.08383C12.1957 7.08383 12.2316 7.0805 12.2681 7.07384C12.5713 7.01188 12.7708 6.71009 12.7115 6.39963C12.4448 5.00659 11.3918 3.93066 10.0271 3.65951" fill="#C39EFF"/>
<path d="M9.9856 1.33829C9.83954 1.31698 9.69284 1.36095 9.57612 1.45555C9.45615 1.55148 9.38117 1.69005 9.36487 1.84528C9.33031 2.15906 9.55265 2.44287 9.86041 2.47818C11.9828 2.71935 13.6324 4.40286 13.871 6.5707C13.903 6.86117 14.1423 7.08035 14.4278 7.08035C14.4494 7.08035 14.4702 7.07902 14.4917 7.07635C14.6411 7.0597 14.7741 6.98442 14.868 6.8645C14.9612 6.74458 15.0036 6.59535 14.9866 6.44279C14.6893 3.73798 12.6335 1.63875 9.9856 1.33829" fill="#C39EFF"/>
<path fill-rule="evenodd" clip-rule="evenodd" d="M7.80964 8.64826C10.4213 11.3069 11.0138 8.23115 12.6767 9.92321C14.2798 11.5552 15.2012 11.8821 13.1701 13.9498C12.9156 14.158 11.2992 16.6628 5.61824 10.8798C-0.0633715 5.096 2.3951 3.4483 2.59962 3.1893C4.6357 1.1159 4.95126 2.05959 6.5544 3.69155C8.21728 5.38433 5.19796 5.98961 7.80964 8.64826Z" fill="#FDDB2C"/>
</svg>
