<svg width="16" height="17" viewBox="0 0 16 17" fill="none" xmlns="http://www.w3.org/2000/svg">
<path fill-rule="evenodd" clip-rule="evenodd" d="M5.11398 1.83301H10.894C13.154 1.83301 14.6673 3.41901 14.6673 5.77901V11.2257C14.6673 13.5797 13.154 15.1663 10.894 15.1663H5.11398C2.85398 15.1663 1.33398 13.5797 1.33398 11.2257V5.77901C1.33398 3.41901 2.85398 1.83301 5.11398 1.83301ZM10.3873 11.0397C10.554 11.0397 10.7207 10.953 10.814 10.793C10.9607 10.559 10.8807 10.2523 10.6407 10.1063L8.26732 8.69301V5.61234C8.26732 5.33967 8.04732 5.11234 7.76732 5.11234C7.49398 5.11234 7.26732 5.33967 7.26732 5.61234V8.97967C7.26732 9.15301 7.36065 9.31967 7.51398 9.40634L10.1273 10.9663C10.2073 11.0197 10.3007 11.0397 10.3873 11.0397Z" fill="#FDDB2C"/>
</svg>
