<svg width="10" height="10" viewBox="0 0 10 10" fill="none" xmlns="http://www.w3.org/2000/svg">
<path fill-rule="evenodd" clip-rule="evenodd" d="M0.859754 4.41638C3.43685 3.23092 5.15519 2.44931 6.01477 2.07156C8.46985 0.994018 8.98263 0.806884 9.31239 0.799921C9.43468 0.797412 9.55462 0.835464 9.65534 0.90872C9.72602 0.973061 9.77108 1.06322 9.78148 1.16113C9.79923 1.28291 9.80421 1.40638 9.79632 1.52931C9.66359 3.00897 9.08733 6.58539 8.79466 8.23826C8.671 8.93457 8.42698 9.17219 8.19037 9.19569C7.67759 9.2453 7.28353 8.83709 6.78888 8.49328C6.01064 7.95451 5.57123 7.6229 4.81608 7.0937C3.94303 6.48443 4.5094 6.15281 5.00652 5.60795C5.13677 5.4652 7.3973 3.29271 7.44181 3.09601C7.44768 3.06696 7.44701 3.03686 7.43985 3.00814C7.43269 2.97942 7.41925 2.95287 7.40059 2.93063C7.37353 2.91278 7.3429 2.90183 7.31113 2.89865C7.27936 2.89548 7.24733 2.90017 7.21757 2.91235C7.14008 2.93034 5.89743 3.79754 3.48961 5.51394C3.13677 5.76984 2.81717 5.89459 2.53083 5.88821C2.21508 5.88038 1.60831 5.69934 1.15654 5.54006C0.603361 5.35031 0.167254 5.25022 0.201879 4.93078C0.222215 4.76367 0.441505 4.5922 0.859754 4.41638Z" fill="white"/>
</svg>
