<svg width="16" height="14" viewBox="0 0 16 14" fill="none" xmlns="http://www.w3.org/2000/svg">
<path fill-rule="evenodd" clip-rule="evenodd" d="M1.09967 6.02763C5.39483 4.05185 8.25873 2.74917 9.69136 2.11959C13.7832 0.323689 14.6378 0.0117995 15.1874 0.000194355C15.3912 -0.00398834 15.5911 0.0594326 15.759 0.181525C15.8768 0.288761 15.9519 0.439019 15.9692 0.602213C15.9988 0.805172 16.0071 1.01096 15.9939 1.21584C15.7727 3.68194 14.8123 9.64264 14.3245 12.3974C14.1184 13.5579 13.7117 13.954 13.3174 13.9931C12.4627 14.0758 11.806 13.3955 10.9816 12.8225C9.68449 11.9245 8.95214 11.3718 7.69355 10.4898C6.23847 9.47437 7.18241 8.92167 8.01094 8.01357C8.22803 7.77566 11.9956 4.15485 12.0698 3.827C12.0796 3.77859 12.0784 3.72843 12.0665 3.68056C12.0546 3.63268 12.0322 3.58844 12.0011 3.55138C11.956 3.52162 11.9049 3.50337 11.852 3.49808C11.799 3.49279 11.7456 3.50061 11.696 3.52092C11.5669 3.55089 9.49579 4.99622 5.48277 7.8569C4.89469 8.28339 4.36203 8.49131 3.88479 8.48068C3.35855 8.46762 2.34727 8.16589 1.59431 7.90042C0.67235 7.58418 -0.0544949 7.41735 0.00321354 6.88496C0.0371058 6.60644 0.40259 6.32066 1.09967 6.02763Z" fill="#07003B"/>
</svg>
