<svg width="18" height="18" viewBox="0 0 18 18" fill="none" xmlns="http://www.w3.org/2000/svg">
<g clip-path="url(#clip0_1173_5178)">
<path d="M-6.10352e-05 18L1.27225 13.3758C0.287942 11.6741 -0.105039 9.69661 0.154231 7.74989C0.413501 5.80317 1.31053 3.99598 2.70627 2.60849C4.10201 1.22099 5.91849 0.330692 7.87411 0.075609C9.82973 -0.179474 11.8152 0.214908 13.5228 1.19762C15.2304 2.18032 16.5648 3.69646 17.3189 5.51099C18.0731 7.32552 18.205 9.33708 17.6941 11.2338C17.1833 13.1306 16.0583 14.8066 14.4935 16.002C12.9287 17.1974 11.0115 17.8454 9.0392 17.8456C7.54308 17.8448 6.07099 17.471 4.75718 16.7584L-6.10352e-05 18ZM4.97119 15.1477L5.2442 15.3154C6.39218 15.9923 7.70165 16.3498 9.03583 16.3507C10.688 16.351 12.2934 15.8046 13.5997 14.7975C14.906 13.7903 15.8391 12.3795 16.2523 10.7868C16.6655 9.19404 16.5354 7.50976 15.8824 5.99871C15.2293 4.48765 14.0905 3.23552 12.6448 2.43916C11.1992 1.64279 9.52871 1.34735 7.89603 1.59929C6.26335 1.85123 4.76106 2.63625 3.62533 3.83095C2.4896 5.02564 1.78483 6.56226 1.62183 8.19923C1.45884 9.8362 1.84685 11.4807 2.72487 12.8742L2.89338 13.1544L2.14011 15.8909L4.97119 15.1477Z" fill="#07003B"/>
<path fill-rule="evenodd" clip-rule="evenodd" d="M13.5538 11.0439C13.4982 10.9499 13.3482 10.8946 13.1241 10.7838C12.8999 10.6731 11.7995 10.1328 11.5939 10.0573C11.3883 9.98181 11.24 9.94657 11.0884 10.1697C10.9367 10.3929 10.5104 10.8946 10.3806 11.0439C10.2508 11.1932 10.1177 11.2117 9.89527 11.0993C9.23842 10.8366 8.63232 10.4625 8.10394 9.99355C7.61433 9.54263 7.19464 9.02186 6.85859 8.44825C6.72715 8.2251 6.84343 8.11268 6.95633 7.99355C7.06924 7.87443 7.18046 7.73181 7.29337 7.60261C7.38603 7.49007 7.46155 7.36457 7.5175 7.23013C7.54699 7.16849 7.56073 7.10055 7.5575 7.03235C7.55427 6.96414 7.53415 6.89779 7.49896 6.83919C7.44334 6.72845 6.99341 5.63114 6.80804 5.18483C6.62267 4.73852 6.44236 4.80899 6.30249 4.8006C6.16262 4.79221 6.02275 4.8006 5.87446 4.8006C5.75928 4.8025 5.64579 4.82841 5.54129 4.87667C5.4368 4.92494 5.34363 4.99448 5.26779 5.0808C5.01648 5.31806 4.81714 5.60449 4.68229 5.9221C4.54744 6.23971 4.48 6.58164 4.48419 6.92644C4.48419 8.02376 5.28633 9.08416 5.39924 9.23349C5.51215 9.38281 6.97825 11.6345 9.22458 12.5993C9.64164 12.7784 10.068 12.9353 10.5019 13.0691C10.9588 13.2072 11.4417 13.2376 11.9124 13.158C12.3421 13.0942 13.237 12.6177 13.4291 12.0976C13.6212 11.5774 13.6094 11.1362 13.5538 11.0439Z" fill="#07003B"/>
</g>
<defs>
<clipPath id="clip0_1173_5178">
<rect width="18" height="18" fill="white"/>
</clipPath>
</defs>
</svg>
