<svg width="12" height="11" viewBox="0 0 12 11" fill="none" xmlns="http://www.w3.org/2000/svg">
<g clip-path="url(#clip0_1173_5644)">
<path d="M0.599976 10.8L1.36336 8.0255C0.772778 7.00447 0.536989 5.81796 0.692551 4.64993C0.848113 3.4819 1.38633 2.39759 2.22377 1.56509C3.06122 0.732594 4.15111 0.198415 5.32448 0.0453654C6.49785 -0.107684 7.68916 0.128945 8.71372 0.718569C9.73828 1.30819 10.5389 2.21788 10.9914 3.3066C11.4439 4.39531 11.523 5.60225 11.2165 6.7403C10.91 7.87835 10.235 8.88394 9.2961 9.60118C8.35722 10.3184 7.20692 10.7073 6.02353 10.7074C5.12586 10.7069 4.24261 10.4826 3.45432 10.055L0.599976 10.8ZM3.58273 9.08859L3.74653 9.18926C4.43532 9.59539 5.221 9.80991 6.02151 9.8104C7.01281 9.8106 7.97607 9.48278 8.75985 8.87848C9.54363 8.27419 10.1035 7.42769 10.3514 6.47205C10.5993 5.51642 10.5212 4.50585 10.1294 3.59922C9.73762 2.69259 9.05431 1.94131 8.18691 1.46349C7.31952 0.985674 6.31724 0.808411 5.33763 0.959573C4.35802 1.11074 3.45665 1.58175 2.77521 2.29857C2.09377 3.01539 1.67091 3.93736 1.57311 4.91954C1.47531 5.90172 1.70812 6.88841 2.23493 7.7245L2.33604 7.89262L1.88408 9.53456L3.58273 9.08859Z" fill="white"/>
<path fill-rule="evenodd" clip-rule="evenodd" d="M8.73227 6.62614C8.6989 6.56976 8.60891 6.53654 8.47443 6.4701C8.33996 6.40365 7.67971 6.07949 7.55636 6.03419C7.433 5.98889 7.34402 5.96775 7.25303 6.10164C7.16203 6.23553 6.90622 6.53654 6.82836 6.62614C6.75051 6.71573 6.67063 6.72681 6.53716 6.65936C6.14305 6.50178 5.77939 6.27731 5.46236 5.99594C5.16859 5.72538 4.91678 5.41292 4.71516 5.06876C4.63629 4.93486 4.70606 4.86741 4.7738 4.79594C4.84154 4.72446 4.90828 4.63889 4.97602 4.56137C5.03162 4.49385 5.07693 4.41854 5.1105 4.33788C5.1282 4.3009 5.13644 4.26013 5.1345 4.21921C5.13256 4.17829 5.12049 4.13848 5.09937 4.10332C5.06601 4.03688 4.79604 3.37849 4.68482 3.1107C4.5736 2.84292 4.46541 2.8852 4.38149 2.88017C4.29757 2.87513 4.21365 2.88017 4.12467 2.88017C4.05557 2.8813 3.98747 2.89685 3.92477 2.92581C3.86208 2.95477 3.80618 2.99649 3.76067 3.04829C3.60989 3.19064 3.49028 3.3625 3.40937 3.55306C3.32847 3.74363 3.288 3.94879 3.29052 4.15567C3.29052 4.81406 3.7718 5.4503 3.83954 5.5399C3.90729 5.62949 4.78695 6.9805 6.13475 7.55936C6.38499 7.66686 6.64082 7.76096 6.90116 7.84124C7.17528 7.92412 7.46501 7.94239 7.74745 7.89459C8.00528 7.85634 8.54218 7.57043 8.65744 7.25835C8.77271 6.94627 8.76563 6.68151 8.73227 6.62614Z" fill="white"/>
</g>
<defs>
<clipPath id="clip0_1173_5644">
<rect width="10.8" height="10.8" fill="white" transform="translate(0.599976)"/>
</clipPath>
</defs>
</svg>
