<?xml version="1.0" encoding="UTF-8"?>
<svg xmlns="http://www.w3.org/2000/svg" width="65" height="64" viewBox="0 0 65 64" fill="none">
  <g clip-path="url(#clip0_674_3739)">
    <path opacity="0.3" d="M27.6318 64C12.6473 59.9849 3.90281 44.0306 8.10039 28.365C12.298 12.6995 27.8481 3.25486 42.8325 7.26994C31.508 49.5338 37.4363 27.4091 27.6318 64Z" fill="#FF5670"></path>
    <path fill-rule="evenodd" clip-rule="evenodd" d="M42.4754 48.7956C42.6627 48.8941 42.8722 48.9442 43.0816 48.9426C43.291 48.9409 43.4988 48.8891 43.6878 48.789L49.7223 45.5421C51.4336 44.624 52.7736 43.5973 53.8191 42.4021C56.0923 39.7979 57.3336 36.4743 57.3114 33.0471L57.2399 21.7424C57.2331 20.4403 56.3834 19.2784 55.1268 18.8561L43.9006 15.065C43.2246 14.8346 42.4839 14.8396 41.8199 15.0767L30.6362 19.003C29.3864 19.442 28.5521 20.6122 28.5589 21.916L28.6304 33.2124C28.6525 36.6445 29.9364 39.9532 32.247 42.5306C33.3027 43.7092 34.6547 44.7208 36.3847 45.6239L42.4754 48.7956ZM40.8779 35.5092C41.1299 35.7529 41.4569 35.8731 41.7838 35.8698C42.1107 35.8681 42.4359 35.7446 42.6845 35.4975L49.2793 28.9537C49.7748 28.4613 49.7697 27.67 49.269 27.1842C48.7667 26.6985 47.9579 26.7018 47.4624 27.1942L41.7651 32.8466L39.4323 30.5897C38.93 30.1039 38.1229 30.1089 37.6257 30.6014C37.1302 31.0938 37.1353 31.8851 37.6376 32.3709L40.8779 35.5092Z" fill="#07003B"></path>
    <circle cx="56.6606" cy="34.6606" r="7.6606" fill="#FF5670"></circle>
    <path d="M59.4707 33.6657H57.9446V32.1639C57.9446 31.5228 57.4337 31 56.8042 31C56.1761 31 55.6639 31.5228 55.6639 32.1639V33.6657H54.1404C53.5109 33.6657 53 34.1885 53 34.8296C53 35.4708 53.5109 35.9936 54.1404 35.9936H55.6639V37.4967C55.6639 38.1378 56.1761 38.6606 56.8042 38.6606C57.4337 38.6606 57.9446 38.1378 57.9446 37.4967V35.9936H59.4707C60.0989 35.9936 60.6111 35.4708 60.6111 34.8296C60.6111 34.1885 60.0989 33.6657 59.4707 33.6657Z" fill="white"></path>
  </g>
  <defs>
    <clipPath id="clip0_674_3739">
      <rect width="64" height="64" fill="white" transform="translate(0.5)"></rect>
    </clipPath>
  </defs>
</svg>
