<?xml version="1.0" encoding="UTF-8"?>
<svg xmlns="http://www.w3.org/2000/svg" width="65" height="64" viewBox="0 0 65 64" fill="none">
  <g clip-path="url(#clip0_674_3718)">
    <path opacity="0.3" d="M27.6318 64C12.6473 59.9849 3.90281 44.0306 8.10039 28.365C12.298 12.6995 27.8481 3.25486 42.8325 7.26994C31.508 49.5338 37.4363 27.4091 27.6318 64Z" fill="#FF5670"></path>
    <path d="M46.903 40.9759C46.4621 41.4031 46.2595 42.0211 46.36 42.6271L47.8734 51.0027C48.0011 51.7126 47.7014 52.431 47.1073 52.8413C46.5251 53.2669 45.7505 53.3179 45.1156 52.9775L37.5758 49.045C37.3137 48.9054 37.0226 48.8305 36.7246 48.822H36.2633C36.1033 48.8458 35.9467 48.8969 35.8037 48.9752L28.2622 52.9264C27.8894 53.1137 27.4672 53.18 27.0536 53.1137C26.0458 52.923 25.3733 51.9629 25.5385 50.95L27.0536 42.5744C27.154 41.9632 26.9514 41.3419 26.5105 40.9078L20.3633 34.9495C19.8492 34.4507 19.6704 33.7017 19.9054 33.0258C20.1335 32.3517 20.7157 31.8597 21.4188 31.7491L29.8795 30.5217C30.523 30.4553 31.0881 30.0638 31.3775 29.4849L35.1057 21.8414C35.1942 21.6711 35.3083 21.5145 35.4462 21.3817L35.5994 21.2626C35.6794 21.174 35.7713 21.1008 35.8735 21.0413L36.059 20.9732L36.3484 20.854H37.0651C37.7052 20.9204 38.2687 21.3034 38.5632 21.8754L42.3407 29.4849C42.6131 30.0416 43.1425 30.4281 43.7537 30.5217L52.2144 31.7491C52.9294 31.8512 53.5269 32.3449 53.7635 33.0258C53.9865 33.7085 53.7942 34.4575 53.2698 34.9495L46.903 40.9759Z" fill="#07003B"></path>
    <circle cx="56.6958" cy="45.9638" r="7.6606" fill="#FF5670"></circle>
    <path fill-rule="evenodd" clip-rule="evenodd" d="M57.1027 40.8564C56.4898 40.8564 55.9791 41.3684 55.9791 41.98V46.3465C55.9791 46.9607 56.4898 47.4573 57.1027 47.4573C57.7155 47.4573 58.2135 46.9607 58.2135 46.3465V41.98C58.2135 41.3684 57.7155 40.8564 57.1027 40.8564ZM55.9919 50.3951C55.9919 51.0079 56.4898 51.5186 57.1154 51.5186C57.7283 51.5186 58.2262 51.0079 58.2262 50.3951C58.2262 49.7822 57.7283 49.2843 57.1027 49.2843C56.4898 49.2843 55.9919 49.7822 55.9919 50.3951Z" fill="#07003B"></path>
  </g>
  <defs>
    <clipPath id="clip0_674_3718">
      <rect width="64" height="64" fill="white" transform="translate(0.5)"></rect>
    </clipPath>
  </defs>
</svg>
