<?xml version="1.0" encoding="UTF-8"?>
<svg xmlns="http://www.w3.org/2000/svg" width="65" height="64" viewBox="0 0 65 64" fill="none">
  <g clip-path="url(#clip0_674_3730)">
    <path opacity="0.3" d="M27.6318 64C12.6473 59.9849 3.90281 44.0306 8.10039 28.365C12.298 12.6995 27.8481 3.25486 42.8325 7.26994C31.508 49.5338 37.4363 27.4091 27.6318 64Z" fill="#01BCF8"></path>
    <path fill-rule="evenodd" clip-rule="evenodd" d="M45.7297 32.1679L46.9558 33.3936C47.9265 34.3469 48.4544 35.6407 48.4544 37.0026C48.4715 38.3645 47.9436 39.66 46.9899 40.6286C46.9785 40.6411 46.9672 40.6521 46.9558 40.663C46.9501 40.6685 46.9445 40.674 46.9388 40.6797L45.7297 41.8883C45.2529 42.365 44.9804 43.0119 44.9804 43.6945V45.4463C44.9804 48.2722 42.6814 50.5721 39.8544 50.5721H38.1004C37.4192 50.5721 36.7721 50.8427 36.2952 51.3194L35.0691 52.5451C34.0643 53.5512 32.753 54.0432 31.4417 54.0432C30.1305 54.0432 28.8192 53.5512 27.8144 52.5638L26.5712 51.3194C26.0944 50.8427 25.4473 50.5721 24.7661 50.5721H23.012C20.1851 50.5721 17.8861 48.2722 17.8861 45.4463V43.6945C17.8861 43.0119 17.6136 42.365 17.1368 41.8713L15.9106 40.6626C13.9182 38.6726 13.9011 35.4194 15.8936 33.4123L17.1368 32.1679C17.6136 31.6912 17.8861 31.0443 17.8861 30.3464V28.61C17.8861 25.784 20.1851 23.4876 23.012 23.4876H24.7661C25.4473 23.4876 26.0944 23.2135 26.5712 22.7368L27.7974 21.5111C29.7899 19.5041 33.0425 19.5041 35.052 21.4958L36.2952 22.7368C36.7721 23.2135 37.4192 23.4876 38.1004 23.4876H39.8544C42.6814 23.4876 44.9804 25.784 44.9804 28.61V30.3651C44.9804 31.0443 45.2529 31.6912 45.7297 32.1679ZM27.0481 42.8927C27.4568 42.8927 27.8314 42.7395 28.1039 42.4501L36.8572 33.7017C37.4362 33.1229 37.4362 32.1679 36.8572 31.5891C36.2782 31.012 35.3416 31.012 34.7625 31.5891L26.0093 40.3392C25.4303 40.918 25.4303 41.8713 26.0093 42.4501C26.2817 42.7395 26.6564 42.8927 27.0481 42.8927ZM34.3198 41.3947C34.3198 42.2288 34.9839 42.8927 35.8184 42.8927C36.6358 42.8927 37.3 42.2288 37.3 41.3947C37.3 40.5792 36.6358 39.9136 35.8184 39.9136C34.9839 39.9136 34.3198 40.5792 34.3198 41.3947ZM27.0651 31.1635C27.8825 31.1635 28.5467 31.8274 28.5467 32.6445C28.5467 33.4804 27.8825 34.1426 27.0651 34.1426C26.2477 34.1426 25.5665 33.4804 25.5665 32.6445C25.5665 31.8274 26.2477 31.1635 27.0651 31.1635Z" fill="#07003B"></path>
    <circle cx="55.5295" cy="45.8032" r="7.5" fill="#01BCF8"></circle>
  </g>
  <defs>
    <clipPath id="clip0_674_3730">
      <rect width="64" height="64" fill="white" transform="translate(0.5)"></rect>
    </clipPath>
  </defs>
</svg>
