<svg width="18" height="12" viewBox="0 0 18 12" fill="none" xmlns="http://www.w3.org/2000/svg">
<path fill-rule="evenodd" clip-rule="evenodd" d="M7.83503 5.99339L7.83656 5.6393C7.84872 4.23482 7.93338 2.98174 8.07939 2.18763C8.07939 2.17331 8.23866 1.38572 8.34012 1.12355C8.49939 0.74463 8.78738 0.422985 9.14847 0.219203C9.43756 0.0738021 9.74083 0 10.0583 0C10.3078 0.011566 10.7194 0.13714 11.0131 0.242421L11.2572 0.335965C12.8739 0.978153 15.9644 3.07656 17.148 4.35983L17.2353 4.44953L17.6247 4.86984C17.8702 5.19148 18 5.58473 18 6.00771C18 6.38663 17.8844 6.76556 17.6531 7.07178C17.5839 7.17099 17.4723 7.29827 17.3731 7.40581L16.994 7.80261C15.6895 9.12428 12.8652 10.9782 11.4012 11.5924C11.4012 11.6057 10.4914 11.9857 10.0583 12H10.0005C9.33611 12 8.71539 11.6211 8.39793 11.0086C8.31121 10.8412 8.22803 10.5132 8.16476 10.2252L8.05103 9.68129C7.92121 8.80668 7.83503 7.46503 7.83503 5.99339ZM1.50325 7.51834C0.673082 7.51834 0 6.8387 0 6.00044C0 5.16218 0.673082 4.48254 1.50325 4.48254L5.20248 4.80969C5.85375 4.80969 6.38174 5.34173 6.38174 6.00044C6.38174 6.65805 5.85375 7.19119 5.20248 7.19119L1.50325 7.51834Z" fill="#07003B"/>
</svg>
